<svg width="142" height="130" viewBox="0 0 142 130" fill="none" xmlns="http://www.w3.org/2000/svg">
<path d="M27.7 76.8C27.5 76.8 27.2 76.6 27.1 76.4C27 76.2 27.2 75.8 27.5 75.8L65.5 66.4C65.8 66.3 66.2 66.5 66.2 66.8C66.3 67 66.1 67.4 65.8 67.4L27.9 76.8C27.8 76.8 27.8 76.8 27.7 76.8Z" fill="#FF9900"/>
<path d="M75.8001 65C75.6001 65 75.3001 64.8 75.2001 64.6C75.1001 64.4 75.3001 64 75.6001 64L113.5 54.6C113.8 54.5 114.2 54.7 114.2 55C114.3 55.2 114.1 55.6 113.8 55.6L75.8001 65Z" fill="#FF9900"/>
<path d="M27.7001 87.6999C27.2001 87.6999 26.8001 87.3999 26.6001 86.9999C26.6001 86.7999 26.6001 86.4999 26.8001 86.2999C26.9001 86.0999 27.1001 85.8999 27.5001 85.8999L65.6001 76.9999C65.7001 76.9999 65.8001 76.8999 65.9001 76.8999C66.4001 76.8999 66.8001 77.1999 67.0001 77.5999C67.1001 77.7999 67.1001 78.1999 66.9001 78.2999C66.8001 78.4999 66.6001 78.6999 66.2001 78.6999L28.0001 87.6999C27.9001 87.6999 27.8001 87.6999 27.7001 87.6999Z" fill="#FF9900"/>
<path d="M75.6 76.4001C75.1 76.4001 74.7 76.1001 74.5 75.7001C74.4 75.5001 74.4 75.1001 74.6 75.0001C74.7 74.8001 74.9 74.6001 75.3 74.6001L113.4 65.7001C113.5 65.7001 113.6 65.6001 113.7 65.6001C114.2 65.6001 114.6 65.9001 114.8 66.3001C114.9 66.5001 114.9 66.9001 114.7 67.0001C114.6 67.2001 114.4 67.4001 114 67.4001L75.9 76.3001C75.8 76.4001 75.8 76.4001 75.6 76.4001Z" fill="#FF9900"/>
<path d="M27.7 99.8C27.5 99.8 27.2 99.6 27.1 99.4C27 99.2 27.2 98.8 27.5 98.8L65.5 89.4C65.8 89.3 66.2 89.5 66.2 89.8C66.3 90 66.1 90.4 65.8 90.4L27.9 99.8C27.8 99.8 27.8 99.8 27.7 99.8Z" fill="#FF9900"/>
<path d="M75.8001 87.8999C75.6001 87.8999 75.3001 87.6999 75.2001 87.4999C75.1001 87.2999 75.3001 86.8999 75.6001 86.8999L113.6 77.4999C113.9 77.3999 114.3 77.5999 114.3 77.8999C114.4 78.0999 114.2 78.4999 113.9 78.4999L75.8001 87.8999Z" fill="#FF9900"/>
<path d="M29.4001 108.1C28.8001 108.1 28.2001 107.9 27.7001 107.5C27.0001 107 26.6001 106.3 26.6001 105.6V64.4L26.7001 64.2C35.2001 51 44.9001 39.1 52.7001 32.4C54.9001 30.5 58.7001 29.5 63.9001 29.5C65.5001 29.5 67.2001 29.6 69.0001 29.7L68.7001 31.6C67.0001 31.4 65.4001 31.4 63.9001 31.4C61.2001 31.4 58.3001 31.6 55.8001 32.8C52.9001 34.2 51.0001 36.6 48.9001 38.7C44.3001 43.5 40.2001 48.6 36.3001 53.8C33.7001 57.3 31.2001 60.9 28.9001 64.7L28.8001 64.9V106.5L112.6 86.5V54.5C112.6 54.5 111.4 49.9 108.4 47.6C103.6 43.9 95.9001 40.3 90.1001 37.9L91.0001 36.1C97.0001 38.5 104.7 42.2 109.8 46C114.4 49.5 114.7 54.8 114.7 55V86C114.7 87.1 113.9 88.1 112.7 88.4L30.1001 108.1C29.9001 108.1 29.6001 108.1 29.4001 108.1Z" fill="#FF9900"/>
<path d="M28.1001 63.3999C36.9001 60.7999 89.0001 45.3999 106.1 45.3999C107.2 45.3999 108 45.4999 108.7 45.5999L109.3 47.4999C108.7 47.3999 106.8 47.2999 105.9 47.2999C91.8001 47.2999 46.1001 60.0999 28.8001 65.2999L28.1001 63.3999Z" fill="#FF9900"/>
<path d="M88.7 30.2C88.5 30.2 88.2 30.1 88 30C87.5 29.7 87.4 29.1 87.8 28.6C88 28.4 92.3 23.5 102.7 23.5C104.9 23.5 107.3 23.7 109.7 24.2C110 24.3 110.3 24.4 110.4 24.6C110.5 24.9 110.6 25.1 110.5 25.3C110.5 25.8 110 26.1 109.5 26.1C109.4 26.1 109.4 26.1 109.3 26.1C107 25.7 104.7 25.5 102.7 25.5C93.6 25.5 89.8 29.6 89.6 29.8C89.3 30.1 89 30.2 88.7 30.2Z" fill="#FF9900"/>
<path d="M36.2 58.5C46.2 44.4 53.9 37.3001 56 35.4001C57 34.5001 58.8999 34 61.5999 33.8C61.4999 34.4 61.5 35.2 61.5 35.8C61.5 41.5 64.9 46.7001 70.3 49.4001C57.9 52.5001 45.2 56 36.2 58.5Z" fill="#FF9900"/>
<path d="M78.9999 27.0001C73.4999 27.0001 69.0999 31.0001 69.0999 35.8001C69.0999 40.7001 73.4999 44.6001 78.9999 44.6001C84.4999 44.6001 88.8999 40.6001 88.8999 35.8001C88.8999 31.0001 84.3999 27.0001 78.9999 27.0001ZM78.9999 46.7001C72.2999 46.7001 66.8999 41.9001 66.8999 35.9001C66.8999 30.0001 72.2999 25.1001 78.9999 25.1001C85.6999 25.1001 91.0999 29.9001 91.0999 35.9001C90.9999 41.8001 85.5999 46.7001 78.9999 46.7001Z" fill="#FF9900"/>
<path d="M78.9999 27.0001C73.4999 27.0001 69.0999 31.0001 69.0999 35.8001C69.0999 40.7001 73.4999 44.6001 78.9999 44.6001C84.4999 44.6001 88.8999 40.6001 88.8999 35.8001C88.8999 31.0001 84.3999 27.0001 78.9999 27.0001ZM78.9999 46.7001C72.2999 46.7001 66.8999 41.9001 66.8999 35.9001C66.8999 30.0001 72.2999 25.1001 78.9999 25.1001C85.6999 25.1001 91.0999 29.9001 91.0999 35.9001C90.9999 41.8001 85.5999 46.7001 78.9999 46.7001Z" fill="#FF9900"/>
<path d="M108.8 28.3C108.7 28.3 108.6 28.3 108.6 28.3C108 28.2 107.6 27.7001 107.8 27.2001L108.9 23C109 22.6 109.5 22.3 110 22.3C110.1 22.3 110.2 22.3 110.2 22.3C110.8 22.4 111.2 22.9 111 23.4L109.9 27.6C109.8 27.9001 109.4 28.3 108.8 28.3Z" fill="#FF9900"/>
<path d="M91.6001 45.2C92.7001 44.1 93.5001 42.8 94.1001 41.5C96.0001 42.4 97.7001 43.2 99.2001 44C96.9001 44.3 94.4001 44.7 91.6001 45.2Z" fill="#FF9900"/>
</svg>
