<svg width="193" height="158" viewBox="0 0 193 158" fill="none" xmlns="http://www.w3.org/2000/svg">
<path d="M62.583 61.4275C56.1658 54.9239 47.1368 40.4199 50.6853 29.7057C57.268 9.83 87.1937 -2.07002 98.1255 2.19048C95.7176 2.75348 88.3818 6.76125 80.9416 12.8251C74.1786 18.3369 72.4896 30.4539 80.9976 21.4529C83.9763 18.3017 92.65 9.92353 98.7248 7.57237C111.027 2.81101 123.424 2.98288 132.352 9.23834C126.674 9.9105 115.831 11.6225 104.608 17.4331C90.5794 24.6963 85.9101 32.092 86.2926 32.7346C86.6752 33.3773 86.1621 32.6381 98.9543 25.3857C119.348 13.8237 145.398 10.0749 162.264 28.4329C146.858 21.2734 134.485 25.2799 117.419 30.3206C109.045 32.794 94.4789 40.9172 96.4252 42.2971C98.3715 43.6771 100.342 42.2139 106.916 39.5334C113.491 36.8529 127.328 33.9129 135.981 33.3316C155.044 32.0508 174.327 28.9845 187.116 58.5697C169.565 45.4909 147.024 47.064 127.688 49.2046C123.592 49.6581 98.46 54.8016 100.262 60.9748C101.344 64.6824 112.689 60.3013 115.941 59.5984C119.193 58.8955 134.208 55.3458 138.534 54.6565C142.86 53.9673 152.155 52.2779 164.122 55.6717C176.088 59.0654 182.458 64.9926 184.437 67.2234C186.416 69.4542 190.498 77.1064 190.955 83.1447C191.32 87.9753 191.978 93.0524 192.262 94.9871C189.357 91.5664 181.607 84.0181 170.48 79.3275C156.57 73.4642 145.802 72.3664 140.715 72.2754C135.629 72.1844 127.772 73.1758 127.943 76.0481C128.113 78.9203 136.47 81.6766 140.568 82.7915C144.665 83.9064 154.291 86.3172 157.887 87.5852C161.484 88.8532 171.624 93.8328 178.271 98.4347C184.918 103.037 186.776 107.65 188.341 115.35C189.592 121.51 185.952 135.694 184.469 138.342C185.254 134.489 183.269 129.095 177.872 124.183M62.583 61.4275L57.4493 61.6548M62.583 61.4275C62.8422 57.7192 60.9474 44.9908 62.2749 37.9918C63.9343 29.2431 66.7969 24.4188 70.2744 19.5199M62.583 61.4275C64.0322 57.3977 68.2763 47.5213 73.6599 40.2548C80.3892 31.1716 88.8053 22.5351 93.5442 18.2634M62.583 61.4275C63.8296 61.5666 65.4998 61.8465 67.5398 62.2954M62.583 61.4275C44.4933 67.0856 23.6669 95.1952 30.073 112.819M177.872 124.183C159.841 120.154 172.978 131.03 165.243 131.618C159.02 132.091 152.219 131.191 139.95 120.724C132.49 114.36 121.453 93.4481 118.825 99.3185C115.816 106.04 122.094 118.897 132.241 129.123C144.733 141.713 160.661 141.927 162.109 142.37C159.954 142.662 145.531 152.309 137.593 152.188C131.65 152.097 121.247 151.236 111.37 139.418C101.494 127.6 98.1117 110.271 97.227 105.503C96.5192 101.688 96.7408 90.7296 96.9401 85.7272C96.5395 83.3303 94.9753 79.7016 91.9238 84.3614C88.1093 90.1862 92.4829 113.114 96.0111 123.417C100.038 135.175 111.181 150.075 122.832 156.548C118.715 156.46 106.322 157.694 98.1745 155.465C87.9907 152.678 81.334 149.42 76.478 139.472C71.6221 129.525 69.6155 120.779 68.9891 112.666C68.3627 104.552 69.9364 93.9687 70.7475 90.6571C71.3964 88.0079 74.0559 81.0891 74.7611 77.8648C66.8276 81.2344 64.326 92.7404 63.6068 100.24C63.049 106.057 62.3173 115.166 62.9434 119.798C64.0988 128.346 67.4611 149.06 79.4444 151.566C68.8703 151.021 54.7112 142.175 49.1869 134.144C43.0278 125.19 43.0621 113.666 43.753 109.555C44.4438 105.445 48.3667 90.8519 50.9454 85.8353C53.0084 81.8221 54.5863 77.9621 55.1175 76.5338C55.6647 75.2651 56.0654 73.2133 53.2904 75.1553C50.5155 77.0974 47.0974 82.6862 45.7352 85.2378C44.7054 87.5191 42.4739 92.6481 41.7863 94.9142C40.9268 97.7468 38.5171 107.522 38.3863 111.082C38.2555 114.641 38.2942 120.276 39.6197 124.491C40.6801 127.864 42.8361 131.353 43.7815 132.676C35.189 131.854 21.5233 122.751 18.6804 108.321C15.9438 94.4311 24.9288 83.8242 33.0547 74.1206C34.1086 73.1063 36.0198 69.6534 31.167 71.2077C19.3064 75.0064 11.791 91.4697 10.8923 102.327C8.36826 101.17 2.48611 91.9076 1.54643 85.7941C0.185403 76.9393 3.81811 68.2775 11.1789 62.7916M177.872 124.183C172.89 121.249 157.523 112.121 153.244 109.388C148.668 106.465 136.853 102.63 123.527 87.8248M57.4493 61.6548C53.0275 58.7021 48.4118 56.5177 44.696 55.2481C40.9801 53.9786 33.7263 53.7272 25.2623 55.7194C20.5977 56.8173 15.2747 59.7391 11.1789 62.7916M57.4493 61.6548C50.2326 62.4935 15.7072 65.5795 10.8135 79.0509M57.4493 61.6548C48.2841 60.3474 28.4563 57.9818 22.4668 58.9793C16.4772 59.9767 12.4459 61.9364 11.1789 62.7916M73.5474 63.8347C70.5472 67.1155 63.9112 75.5929 61.3692 83.2568C58.1917 92.8367 53.5749 109.148 53.6761 120.258C53.7571 129.146 55.8492 134.583 56.8851 136.19M73.5474 63.8347C71.2972 63.1864 69.2834 62.6792 67.5398 62.2954M73.5474 63.8347C75.2037 64.312 76.9881 64.8656 78.8872 65.5028M86.5075 68.2923C84.6586 70.626 81.0443 79.2328 81.3787 94.9907C81.7966 114.688 84.3376 124.128 87.8801 133.261C90.7142 140.568 93.8946 145.42 95.1306 146.933M86.5075 68.2923C83.8061 67.2233 81.2574 66.298 78.8872 65.5028M86.5075 68.2923C90.0536 69.6955 93.8625 71.3464 97.8754 73.2759M105.698 77.2678C107.801 78.4031 109.944 79.6116 112.121 80.8968C116.327 83.3796 120.112 85.6857 123.527 87.8248M105.698 77.2678C105.117 81.0651 106.032 91.2245 109.123 104.395C113.066 121.195 114.939 123.501 121.041 134.5C124.863 141.387 130.329 144.353 132.945 145.195M105.698 77.2678C103.019 75.8211 100.407 74.4931 97.8754 73.2759M67.5398 62.2954C72.1928 56.2218 83.4134 42.9348 91.0717 38.3759C100.645 32.6773 105.754 29.1279 113.708 26.2788M78.8872 65.5028C80.3012 62.6544 86.7703 55.6749 101.335 50.5444C119.54 44.1314 129.241 42.1282 145.353 40.9505C158.243 40.0083 164.841 42.792 166.529 44.3016M97.8754 73.2759C102.164 71.7621 114.976 67.9698 131.91 64.9103C148.844 61.8508 168.126 68.6645 175.651 72.4537M123.527 87.8248C132.67 89.2937 157.394 98.0682 163.723 102.018C170.053 105.967 176.224 111.282 178.519 113.446" stroke="white" stroke-linecap="round" stroke-linejoin="round"/>
</svg>
