<svg width="181" height="74" viewBox="0 0 181 74" fill="none" xmlns="http://www.w3.org/2000/svg">
<path fill-rule="evenodd" clip-rule="evenodd" d="M36.7683 2H144.232V14.7106H146.232V2V0H144.232H36.7683H34.7683V2V14.7106H36.7683V2ZM36.7683 56.5367H34.7683V72V74H36.7683H144.232H146.232V72V56.5367H144.232V72H36.7683V56.5367Z" fill="#FF9900"/>
<path d="M23.072 47.8608H14.88V46.9648H15.904C16.8427 46.9648 17.312 46.6662 17.312 46.0688C17.312 45.9835 17.2053 45.6208 16.992 44.9808L14.816 39.2848H6.752L4.64 44.7248C4.64 44.7675 4.56533 45.0342 4.416 45.5248C4.26667 45.9942 4.192 46.3248 4.192 46.5168C4.192 46.6875 4.30933 46.8048 4.544 46.8688C4.77867 46.9328 5.28 46.9648 6.048 46.9648H6.56V47.8608H0.288V46.9648H0.736C1.44 46.9648 1.952 46.8475 2.272 46.6128C2.592 46.3568 2.86933 45.9408 3.104 45.3648L10.144 26.9968C10.2507 26.9755 10.4427 26.8262 10.72 26.5488C10.9973 26.2502 11.2533 25.9515 11.488 25.6528C11.7227 25.3328 11.84 25.1515 11.84 25.1088C11.84 25.0662 11.8293 25.0342 11.808 25.0128L12.256 24.8848L20.128 45.4928C20.3627 45.9835 20.5973 46.3568 20.832 46.6128C21.088 46.8475 21.4507 46.9648 21.92 46.9648H23.072V47.8608ZM14.24 37.9408L10.784 28.7888L7.264 37.9408H14.24ZM43.3103 48.3728L29.1663 29.4288V45.4928C29.1663 46.4315 29.8276 46.9008 31.1503 46.9008H32.3663V47.8608H24.6863V46.9008H25.7103C27.0329 46.9008 27.6943 46.4315 27.6943 45.4928V27.8288C27.6943 26.8902 27.0329 26.4208 25.7103 26.4208H24.6863V25.4608H29.7423L42.9263 43.1888V27.8288C42.9263 26.8902 42.2863 26.4208 41.0063 26.4208H39.9183V25.4608H47.5983V26.4208H46.3823C45.0596 26.4208 44.3983 26.8902 44.3983 27.8288V47.7328C44.1636 47.7328 43.9076 47.8288 43.6303 48.0208C43.3743 48.2342 43.2676 48.3515 43.3103 48.3728ZM71.197 47.8608H63.005V46.9648H64.029C64.9677 46.9648 65.437 46.6662 65.437 46.0688C65.437 45.9835 65.3303 45.6208 65.117 44.9808L62.941 39.2848H54.877L52.765 44.7248C52.765 44.7675 52.6903 45.0342 52.541 45.5248C52.3917 45.9942 52.317 46.3248 52.317 46.5168C52.317 46.6875 52.4343 46.8048 52.669 46.8688C52.9037 46.9328 53.405 46.9648 54.173 46.9648H54.685V47.8608H48.413V46.9648H48.861C49.565 46.9648 50.077 46.8475 50.397 46.6128C50.717 46.3568 50.9943 45.9408 51.229 45.3648L58.269 26.9968C58.3757 26.9755 58.5677 26.8262 58.845 26.5488C59.1223 26.2502 59.3783 25.9515 59.613 25.6528C59.8477 25.3328 59.965 25.1515 59.965 25.1088C59.965 25.0662 59.9543 25.0342 59.933 25.0128L60.381 24.8848L68.253 45.4928C68.4877 45.9835 68.7223 46.3568 68.957 46.6128C69.213 46.8475 69.5757 46.9648 70.045 46.9648H71.197V47.8608ZM62.365 37.9408L58.909 28.7888L55.389 37.9408H62.365ZM72.4913 46.3248L72.9393 42.1648L74.0273 42.2288C74.0273 43.4022 74.7206 44.3515 76.1073 45.0768C77.5153 45.7808 79.1046 46.1328 80.8753 46.1328C82.6673 46.1328 84.0113 45.8662 84.9073 45.3328C85.8033 44.7782 86.2513 44.0848 86.2513 43.2528C86.2513 41.8448 85.5046 40.5862 84.0113 39.4768C83.3926 39.0288 82.7419 38.6342 82.0593 38.2928C80.5019 37.4822 79.5206 36.9702 79.1153 36.7568C78.7313 36.5222 78.2939 36.2875 77.8033 36.0528C77.3126 35.8182 76.8539 35.5728 76.4273 35.3168C76.0219 35.0395 75.5846 34.7088 75.1153 34.3248C74.0486 33.4715 73.5153 32.5222 73.5153 31.4768C73.5153 30.4102 73.6966 29.4822 74.0593 28.6928C74.4433 27.9035 74.9126 27.2848 75.4673 26.8368C76.0433 26.3888 76.7153 26.0155 77.4833 25.7168C78.7846 25.2475 80.2353 25.0128 81.8353 25.0128C83.4566 25.0128 85.0139 25.4182 86.5073 26.2288L86.1233 29.9408H85.0353C85.0353 27.9355 83.3499 26.9328 79.9792 26.9328C78.4219 26.9328 77.2486 27.1782 76.4593 27.6688C75.6913 28.1595 75.3073 28.8315 75.3073 29.6848C75.3073 31.0502 77.5259 32.6928 81.9633 34.6128C84.8859 35.8715 86.7526 37.2688 87.5633 38.8048C87.9686 39.5728 88.1713 40.4155 88.1713 41.3328C88.1713 43.5515 87.2753 45.2688 85.4833 46.4848C83.7126 47.7008 81.5686 48.3088 79.0513 48.3088C76.5339 48.3088 74.3473 47.6475 72.4913 46.3248ZM103.013 47.8608H94.693V46.9648H95.973C96.613 46.9648 97.0183 46.8475 97.189 46.6128C97.3597 46.3568 97.445 46.0048 97.445 45.5568V28.2768C97.445 27.9568 97.4237 27.7115 97.381 27.5408C97.3383 27.3488 97.1997 27.1782 96.965 27.0288C96.7517 26.8795 96.421 26.8048 95.973 26.8048H94.053C92.9223 26.8048 92.0477 27.1568 91.429 27.8608C90.8317 28.5435 90.5117 29.2795 90.469 30.0688L89.573 29.8768L89.893 25.4608H107.877L108.197 29.8768L107.301 30.0688C107.258 29.3008 106.928 28.5648 106.309 27.8608C105.69 27.1568 104.826 26.8048 103.717 26.8048H101.797C101.328 26.8048 100.976 26.8902 100.741 27.0608C100.506 27.2102 100.368 27.3702 100.325 27.5408C100.282 27.7115 100.261 27.9568 100.261 28.2768V45.5568C100.261 45.8555 100.282 46.0902 100.325 46.2608C100.368 46.4315 100.506 46.5915 100.741 46.7408C100.976 46.8902 101.328 46.9648 101.797 46.9648H103.013V47.8608ZM130.135 47.8608H121.943V46.9648H122.967C123.905 46.9648 124.375 46.6662 124.375 46.0688C124.375 45.9835 124.268 45.6208 124.055 44.9808L121.879 39.2848H113.815L111.703 44.7248C111.703 44.7675 111.628 45.0342 111.479 45.5248C111.329 45.9942 111.255 46.3248 111.255 46.5168C111.255 46.6875 111.372 46.8048 111.607 46.8688C111.841 46.9328 112.343 46.9648 113.111 46.9648H113.623V47.8608H107.351V46.9648H107.799C108.503 46.9648 109.015 46.8475 109.335 46.6128C109.655 46.3568 109.932 45.9408 110.167 45.3648L117.207 26.9968C117.313 26.9755 117.505 26.8262 117.783 26.5488C118.06 26.2502 118.316 25.9515 118.551 25.6528C118.785 25.3328 118.903 25.1515 118.903 25.1088C118.903 25.0662 118.892 25.0342 118.871 25.0128L119.319 24.8848L127.191 45.4928C127.425 45.9835 127.66 46.3568 127.895 46.6128C128.151 46.8475 128.513 46.9648 128.983 46.9648H130.135V47.8608ZM121.303 37.9408L117.847 28.7888L114.327 37.9408H121.303ZM131.429 46.3248L131.877 42.1648L132.965 42.2288C132.965 43.4022 133.658 44.3515 135.045 45.0768C136.453 45.7808 138.042 46.1328 139.813 46.1328C141.605 46.1328 142.949 45.8662 143.845 45.3328C144.741 44.7782 145.189 44.0848 145.189 43.2528C145.189 41.8448 144.442 40.5862 142.949 39.4768C142.33 39.0288 141.679 38.6342 140.997 38.2928C139.439 37.4822 138.458 36.9702 138.053 36.7568C137.669 36.5222 137.231 36.2875 136.741 36.0528C136.25 35.8182 135.791 35.5728 135.365 35.3168C134.959 35.0395 134.522 34.7088 134.053 34.3248C132.986 33.4715 132.453 32.5222 132.453 31.4768C132.453 30.4102 132.634 29.4822 132.997 28.6928C133.381 27.9035 133.85 27.2848 134.405 26.8368C134.981 26.3888 135.653 26.0155 136.421 25.7168C137.722 25.2475 139.173 25.0128 140.773 25.0128C142.394 25.0128 143.951 25.4182 145.445 26.2288L145.061 29.9408H143.973C143.973 27.9355 142.287 26.9328 138.917 26.9328C137.359 26.9328 136.186 27.1782 135.397 27.6688C134.629 28.1595 134.245 28.8315 134.245 29.6848C134.245 31.0502 136.463 32.6928 140.901 34.6128C143.823 35.8715 145.69 37.2688 146.501 38.8048C146.906 39.5728 147.109 40.4155 147.109 41.3328C147.109 43.5515 146.213 45.2688 144.421 46.4848C142.65 47.7008 140.506 48.3088 137.989 48.3088C135.471 48.3088 133.285 47.6475 131.429 46.3248ZM157.47 47.8608H149.343V46.9648H150.431C151.071 46.9648 151.487 46.8368 151.679 46.5808C151.871 46.3248 151.967 45.9622 151.967 45.4928V27.8288C151.967 27.3595 151.871 26.9968 151.679 26.7408C151.487 26.4848 151.071 26.3568 150.431 26.3568H149.343V25.4608H157.47V26.3568H156.255C155.615 26.3568 155.199 26.4848 155.007 26.7408C154.815 26.9968 154.719 27.3595 154.719 27.8288V45.4928C154.719 45.9622 154.815 46.3248 155.007 46.5808C155.199 46.8368 155.615 46.9648 156.255 46.9648H157.47V47.8608ZM159.71 46.3248L160.158 42.1648L161.246 42.2288C161.246 43.4022 161.939 44.3515 163.326 45.0768C164.734 45.7808 166.323 46.1328 168.094 46.1328C169.886 46.1328 171.23 45.8662 172.126 45.3328C173.022 44.7782 173.47 44.0848 173.47 43.2528C173.47 41.8448 172.723 40.5862 171.23 39.4768C170.611 39.0288 169.961 38.6342 169.278 38.2928C167.721 37.4822 166.739 36.9702 166.334 36.7568C165.95 36.5222 165.513 36.2875 165.022 36.0528C164.531 35.8182 164.073 35.5728 163.646 35.3168C163.241 35.0395 162.803 34.7088 162.334 34.3248C161.267 33.4715 160.734 32.5222 160.734 31.4768C160.734 30.4102 160.915 29.4822 161.278 28.6928C161.662 27.9035 162.131 27.2848 162.686 26.8368C163.262 26.3888 163.934 26.0155 164.702 25.7168C166.003 25.2475 167.454 25.0128 169.054 25.0128C170.675 25.0128 172.233 25.4182 173.726 26.2288L173.342 29.9408H172.254C172.254 27.9355 170.569 26.9328 167.198 26.9328C165.641 26.9328 164.467 27.1782 163.678 27.6688C162.91 28.1595 162.526 28.8315 162.526 29.6848C162.526 31.0502 164.745 32.6928 169.182 34.6128C172.105 35.8715 173.971 37.2688 174.782 38.8048C175.187 39.5728 175.39 40.4155 175.39 41.3328C175.39 43.5515 174.494 45.2688 172.702 46.4848C170.931 47.7008 168.787 48.3088 166.27 48.3088C163.753 48.3088 161.566 47.6475 159.71 46.3248Z" fill="#FF9900"/>
</svg>
