<svg width="177" height="66" viewBox="0 0 177 66" fill="none" xmlns="http://www.w3.org/2000/svg">
<path fill-rule="evenodd" clip-rule="evenodd" d="M36 2H141V13.1203H143V2V0H141H36H34V2V13.1203H36V2ZM36 50.4246H34V64V66H36H141H143V64V50.4246H141V64H36V50.4246Z" fill="white"/>
<path d="M23.072 44H14.88V43.104H15.904C16.8427 43.104 17.312 42.8053 17.312 42.208C17.312 42.1227 17.2053 41.76 16.992 41.12L14.816 35.424H6.752L4.64 40.864C4.64 40.9067 4.56533 41.1733 4.416 41.664C4.26667 42.1333 4.192 42.464 4.192 42.656C4.192 42.8267 4.30933 42.944 4.544 43.008C4.77867 43.072 5.28 43.104 6.048 43.104H6.56V44H0.288V43.104H0.736C1.44 43.104 1.952 42.9867 2.272 42.752C2.592 42.496 2.86933 42.08 3.104 41.504L10.144 23.136C10.2507 23.1147 10.4427 22.9653 10.72 22.688C10.9973 22.3893 11.2533 22.0907 11.488 21.792C11.7227 21.472 11.84 21.2907 11.84 21.248C11.84 21.2053 11.8293 21.1733 11.808 21.152L12.256 21.024L20.128 41.632C20.3627 42.1227 20.5973 42.496 20.832 42.752C21.088 42.9867 21.4507 43.104 21.92 43.104H23.072V44ZM14.24 34.08L10.784 24.928L7.264 34.08H14.24ZM43.3103 44.512L29.1663 25.568V41.632C29.1663 42.5707 29.8276 43.04 31.1503 43.04H32.3663V44H24.6863V43.04H25.7103C27.0329 43.04 27.6943 42.5707 27.6943 41.632V23.968C27.6943 23.0293 27.0329 22.56 25.7103 22.56H24.6863V21.6H29.7423L42.9263 39.328V23.968C42.9263 23.0293 42.2863 22.56 41.0063 22.56H39.9183V21.6H47.5983V22.56H46.3823C45.0596 22.56 44.3983 23.0293 44.3983 23.968V43.872C44.1636 43.872 43.9076 43.968 43.6303 44.16C43.3743 44.3733 43.2676 44.4907 43.3103 44.512ZM71.197 44H63.005V43.104H64.029C64.9677 43.104 65.437 42.8053 65.437 42.208C65.437 42.1227 65.3303 41.76 65.117 41.12L62.941 35.424H54.877L52.765 40.864C52.765 40.9067 52.6903 41.1733 52.541 41.664C52.3917 42.1333 52.317 42.464 52.317 42.656C52.317 42.8267 52.4343 42.944 52.669 43.008C52.9037 43.072 53.405 43.104 54.173 43.104H54.685V44H48.413V43.104H48.861C49.565 43.104 50.077 42.9867 50.397 42.752C50.717 42.496 50.9943 42.08 51.229 41.504L58.269 23.136C58.3757 23.1147 58.5677 22.9653 58.845 22.688C59.1223 22.3893 59.3783 22.0907 59.613 21.792C59.8477 21.472 59.965 21.2907 59.965 21.248C59.965 21.2053 59.9543 21.1733 59.933 21.152L60.381 21.024L68.253 41.632C68.4877 42.1227 68.7223 42.496 68.957 42.752C69.213 42.9867 69.5757 43.104 70.045 43.104H71.197V44ZM62.365 34.08L58.909 24.928L55.389 34.08H62.365ZM72.4913 42.464L72.9393 38.304L74.0273 38.368C74.0273 39.5413 74.7206 40.4907 76.1073 41.216C77.5153 41.92 79.1046 42.272 80.8753 42.272C82.6673 42.272 84.0113 42.0053 84.9073 41.472C85.8033 40.9173 86.2513 40.224 86.2513 39.392C86.2513 37.984 85.5046 36.7253 84.0113 35.616C83.3926 35.168 82.7419 34.7733 82.0593 34.432C80.5019 33.6213 79.5206 33.1093 79.1153 32.896C78.7313 32.6613 78.2939 32.4267 77.8033 32.192C77.3126 31.9573 76.8539 31.712 76.4273 31.456C76.0219 31.1787 75.5846 30.848 75.1153 30.464C74.0486 29.6107 73.5153 28.6613 73.5153 27.616C73.5153 26.5493 73.6966 25.6213 74.0593 24.832C74.4433 24.0427 74.9126 23.424 75.4673 22.976C76.0433 22.528 76.7153 22.1547 77.4833 21.856C78.7846 21.3867 80.2353 21.152 81.8353 21.152C83.4566 21.152 85.0139 21.5573 86.5073 22.368L86.1233 26.08H85.0353C85.0353 24.0747 83.3499 23.072 79.9792 23.072C78.4219 23.072 77.2486 23.3173 76.4593 23.808C75.6913 24.2987 75.3073 24.9707 75.3073 25.824C75.3073 27.1893 77.5259 28.832 81.9633 30.752C84.8859 32.0107 86.7526 33.408 87.5633 34.944C87.9686 35.712 88.1713 36.5547 88.1713 37.472C88.1713 39.6907 87.2753 41.408 85.4833 42.624C83.7126 43.84 81.5686 44.448 79.0513 44.448C76.5339 44.448 74.3473 43.7867 72.4913 42.464ZM103.013 44H94.693V43.104H95.973C96.613 43.104 97.0183 42.9867 97.189 42.752C97.3597 42.496 97.445 42.144 97.445 41.696V24.416C97.445 24.096 97.4237 23.8507 97.381 23.68C97.3383 23.488 97.1997 23.3173 96.965 23.168C96.7517 23.0187 96.421 22.944 95.973 22.944H94.053C92.9223 22.944 92.0477 23.296 91.429 24C90.8317 24.6827 90.5117 25.4187 90.469 26.208L89.573 26.016L89.893 21.6H107.877L108.197 26.016L107.301 26.208C107.258 25.44 106.928 24.704 106.309 24C105.69 23.296 104.826 22.944 103.717 22.944H101.797C101.328 22.944 100.976 23.0293 100.741 23.2C100.506 23.3493 100.368 23.5093 100.325 23.68C100.282 23.8507 100.261 24.096 100.261 24.416V41.696C100.261 41.9947 100.282 42.2293 100.325 42.4C100.368 42.5707 100.506 42.7307 100.741 42.88C100.976 43.0293 101.328 43.104 101.797 43.104H103.013V44ZM130.135 44H121.943V43.104H122.967C123.905 43.104 124.375 42.8053 124.375 42.208C124.375 42.1227 124.268 41.76 124.055 41.12L121.879 35.424H113.815L111.703 40.864C111.703 40.9067 111.628 41.1733 111.479 41.664C111.329 42.1333 111.255 42.464 111.255 42.656C111.255 42.8267 111.372 42.944 111.607 43.008C111.841 43.072 112.343 43.104 113.111 43.104H113.623V44H107.351V43.104H107.799C108.503 43.104 109.015 42.9867 109.335 42.752C109.655 42.496 109.932 42.08 110.167 41.504L117.207 23.136C117.313 23.1147 117.505 22.9653 117.783 22.688C118.06 22.3893 118.316 22.0907 118.551 21.792C118.785 21.472 118.903 21.2907 118.903 21.248C118.903 21.2053 118.892 21.1733 118.871 21.152L119.319 21.024L127.191 41.632C127.425 42.1227 127.66 42.496 127.895 42.752C128.151 42.9867 128.513 43.104 128.983 43.104H130.135V44ZM121.303 34.08L117.847 24.928L114.327 34.08H121.303ZM131.429 42.464L131.877 38.304L132.965 38.368C132.965 39.5413 133.658 40.4907 135.045 41.216C136.453 41.92 138.042 42.272 139.813 42.272C141.605 42.272 142.949 42.0053 143.845 41.472C144.741 40.9173 145.189 40.224 145.189 39.392C145.189 37.984 144.442 36.7253 142.949 35.616C142.33 35.168 141.679 34.7733 140.997 34.432C139.439 33.6213 138.458 33.1093 138.053 32.896C137.669 32.6613 137.231 32.4267 136.741 32.192C136.25 31.9573 135.791 31.712 135.365 31.456C134.959 31.1787 134.522 30.848 134.053 30.464C132.986 29.6107 132.453 28.6613 132.453 27.616C132.453 26.5493 132.634 25.6213 132.997 24.832C133.381 24.0427 133.85 23.424 134.405 22.976C134.981 22.528 135.653 22.1547 136.421 21.856C137.722 21.3867 139.173 21.152 140.773 21.152C142.394 21.152 143.951 21.5573 145.445 22.368L145.061 26.08H143.973C143.973 24.0747 142.287 23.072 138.917 23.072C137.359 23.072 136.186 23.3173 135.397 23.808C134.629 24.2987 134.245 24.9707 134.245 25.824C134.245 27.1893 136.463 28.832 140.901 30.752C143.823 32.0107 145.69 33.408 146.501 34.944C146.906 35.712 147.109 36.5547 147.109 37.472C147.109 39.6907 146.213 41.408 144.421 42.624C142.65 43.84 140.506 44.448 137.989 44.448C135.471 44.448 133.285 43.7867 131.429 42.464ZM157.47 44H149.343V43.104H150.431C151.071 43.104 151.487 42.976 151.679 42.72C151.871 42.464 151.967 42.1013 151.967 41.632V23.968C151.967 23.4987 151.871 23.136 151.679 22.88C151.487 22.624 151.071 22.496 150.431 22.496H149.343V21.6H157.47V22.496H156.255C155.615 22.496 155.199 22.624 155.007 22.88C154.815 23.136 154.719 23.4987 154.719 23.968V41.632C154.719 42.1013 154.815 42.464 155.007 42.72C155.199 42.976 155.615 43.104 156.255 43.104H157.47V44ZM159.71 42.464L160.158 38.304L161.246 38.368C161.246 39.5413 161.939 40.4907 163.326 41.216C164.734 41.92 166.323 42.272 168.094 42.272C169.886 42.272 171.23 42.0053 172.126 41.472C173.022 40.9173 173.47 40.224 173.47 39.392C173.47 37.984 172.723 36.7253 171.23 35.616C170.611 35.168 169.961 34.7733 169.278 34.432C167.721 33.6213 166.739 33.1093 166.334 32.896C165.95 32.6613 165.513 32.4267 165.022 32.192C164.531 31.9573 164.073 31.712 163.646 31.456C163.241 31.1787 162.803 30.848 162.334 30.464C161.267 29.6107 160.734 28.6613 160.734 27.616C160.734 26.5493 160.915 25.6213 161.278 24.832C161.662 24.0427 162.131 23.424 162.686 22.976C163.262 22.528 163.934 22.1547 164.702 21.856C166.003 21.3867 167.454 21.152 169.054 21.152C170.675 21.152 172.233 21.5573 173.726 22.368L173.342 26.08H172.254C172.254 24.0747 170.569 23.072 167.198 23.072C165.641 23.072 164.467 23.3173 163.678 23.808C162.91 24.2987 162.526 24.9707 162.526 25.824C162.526 27.1893 164.745 28.832 169.182 30.752C172.105 32.0107 173.971 33.408 174.782 34.944C175.187 35.712 175.39 36.5547 175.39 37.472C175.39 39.6907 174.494 41.408 172.702 42.624C170.931 43.84 168.787 44.448 166.27 44.448C163.753 44.448 161.566 43.7867 159.71 42.464Z" fill="white"/>
</svg>
