<svg width="102" height="45" viewBox="0 0 102 45" fill="none" xmlns="http://www.w3.org/2000/svg">
<path fill-rule="evenodd" clip-rule="evenodd" d="M21.6133 2H80.4114V8.9458H82.4114V2V0H80.4114H21.6133H19.6133V2V8.9458H21.6133V2ZM21.6133 34.3806H19.6133V43V45H21.6133H80.4114H82.4114V43V34.3806H80.4114V43H21.6133V34.3806Z" fill="black"/>
<path d="M13.0029 26.8638H8.3949V26.3598H8.9709C9.4989 26.3598 9.7629 26.1918 9.7629 25.8558C9.7629 25.8078 9.7029 25.6038 9.5829 25.2438L8.3589 22.0398H3.8229L2.6349 25.0998C2.6349 25.1238 2.5929 25.2738 2.5089 25.5498C2.4249 25.8138 2.3829 25.9998 2.3829 26.1078C2.3829 26.2038 2.4489 26.2698 2.5809 26.3058C2.7129 26.3418 2.9949 26.3598 3.4269 26.3598H3.7149V26.8638H0.186902V26.3598H0.438902C0.834902 26.3598 1.1229 26.2938 1.3029 26.1618C1.4829 26.0178 1.6389 25.7838 1.7709 25.4598L5.7309 15.1278C5.7909 15.1158 5.8989 15.0318 6.0549 14.8758C6.2109 14.7078 6.3549 14.5398 6.4869 14.3718C6.6189 14.1918 6.6849 14.0898 6.6849 14.0658C6.6849 14.0418 6.6789 14.0238 6.6669 14.0118L6.9189 13.9398L11.3469 25.5318C11.4789 25.8078 11.6109 26.0178 11.7429 26.1618C11.8869 26.2938 12.0909 26.3598 12.3549 26.3598H13.0029V26.8638ZM8.0349 21.2838L6.0909 16.1358L4.1109 21.2838H8.0349ZM24.3869 27.1518L16.4309 16.4958V25.5318C16.4309 26.0598 16.8029 26.3238 17.5469 26.3238H18.2309V26.8638H13.9109V26.3238H14.4869C15.2309 26.3238 15.6029 26.0598 15.6029 25.5318V15.5958C15.6029 15.0678 15.2309 14.8038 14.4869 14.8038H13.9109V14.2638H16.7549L24.1709 24.2358V15.5958C24.1709 15.0678 23.8109 14.8038 23.0909 14.8038H22.4789V14.2638H26.7989V14.8038H26.1149C25.3709 14.8038 24.9989 15.0678 24.9989 15.5958V26.7918C24.8669 26.7918 24.7229 26.8458 24.5669 26.9538C24.4229 27.0738 24.3629 27.1398 24.3869 27.1518ZM40.0732 26.8638H35.4652V26.3598H36.0412C36.5692 26.3598 36.8332 26.1918 36.8332 25.8558C36.8332 25.8078 36.7732 25.6038 36.6532 25.2438L35.4292 22.0398H30.8932L29.7052 25.0998C29.7052 25.1238 29.6632 25.2738 29.5792 25.5498C29.4952 25.8138 29.4532 25.9998 29.4532 26.1078C29.4532 26.2038 29.5192 26.2698 29.6512 26.3058C29.7832 26.3418 30.0652 26.3598 30.4972 26.3598H30.7852V26.8638H27.2572V26.3598H27.5092C27.9052 26.3598 28.1932 26.2938 28.3732 26.1618C28.5532 26.0178 28.7092 25.7838 28.8412 25.4598L32.8012 15.1278C32.8612 15.1158 32.9692 15.0318 33.1252 14.8758C33.2812 14.7078 33.4252 14.5398 33.5572 14.3718C33.6892 14.1918 33.7552 14.0898 33.7552 14.0658C33.7552 14.0418 33.7492 14.0238 33.7372 14.0118L33.9892 13.9398L38.4172 25.5318C38.5492 25.8078 38.6812 26.0178 38.8132 26.1618C38.9572 26.2938 39.1612 26.3598 39.4252 26.3598H40.0732V26.8638ZM35.1052 21.2838L33.1612 16.1358L31.1812 21.2838H35.1052ZM40.8012 25.9998L41.0532 23.6598L41.6652 23.6958C41.6652 24.3558 42.0552 24.8898 42.8352 25.2978C43.6272 25.6938 44.5212 25.8918 45.5172 25.8918C46.5252 25.8918 47.2812 25.7418 47.7852 25.4418C48.2892 25.1298 48.5412 24.7398 48.5412 24.2718C48.5412 23.4798 48.1212 22.7718 47.2812 22.1478C46.9332 21.8958 46.5672 21.6738 46.1832 21.4818C45.3072 21.0258 44.7552 20.7378 44.5272 20.6178C44.3112 20.4858 44.0652 20.3538 43.7892 20.2218C43.5132 20.0898 43.2552 19.9518 43.0152 19.8078C42.7872 19.6518 42.5412 19.4658 42.2772 19.2498C41.6772 18.7698 41.3772 18.2358 41.3772 17.6478C41.3772 17.0478 41.4792 16.5258 41.6832 16.0818C41.8992 15.6378 42.1632 15.2898 42.4752 15.0378C42.7992 14.7858 43.1772 14.5758 43.6092 14.4078C44.3412 14.1438 45.1572 14.0118 46.0572 14.0118C46.9692 14.0118 47.8452 14.2398 48.6852 14.6958L48.4692 16.7838H47.8572C47.8572 15.6558 46.9092 15.0918 45.0132 15.0918C44.1372 15.0918 43.4772 15.2298 43.0332 15.5058C42.6012 15.7818 42.3852 16.1598 42.3852 16.6398C42.3852 17.4078 43.6332 18.3318 46.1292 19.4118C47.7732 20.1198 48.8232 20.9058 49.2792 21.7698C49.5072 22.2018 49.6212 22.6758 49.6212 23.1918C49.6212 24.4398 49.1172 25.4058 48.1092 26.0898C47.1132 26.7738 45.9072 27.1158 44.4912 27.1158C43.0752 27.1158 41.8452 26.7438 40.8012 25.9998ZM57.9697 26.8638H53.2897V26.3598H54.0097C54.3697 26.3598 54.5977 26.2938 54.6937 26.1618C54.7897 26.0178 54.8377 25.8198 54.8377 25.5678V15.8478C54.8377 15.6678 54.8257 15.5298 54.8017 15.4338C54.7777 15.3258 54.6997 15.2298 54.5677 15.1458C54.4477 15.0618 54.2617 15.0198 54.0097 15.0198H52.9297C52.2937 15.0198 51.8017 15.2178 51.4537 15.6138C51.1177 15.9978 50.9377 16.4118 50.9137 16.8558L50.4097 16.7478L50.5897 14.2638H60.7057L60.8857 16.7478L60.3817 16.8558C60.3577 16.4238 60.1717 16.0098 59.8237 15.6138C59.4757 15.2178 58.9897 15.0198 58.3657 15.0198H57.2857C57.0217 15.0198 56.8237 15.0678 56.6917 15.1638C56.5597 15.2478 56.4817 15.3378 56.4577 15.4338C56.4337 15.5298 56.4217 15.6678 56.4217 15.8478V25.5678C56.4217 25.7358 56.4337 25.8678 56.4577 25.9638C56.4817 26.0598 56.5597 26.1498 56.6917 26.2338C56.8237 26.3178 57.0217 26.3598 57.2857 26.3598H57.9697V26.8638ZM73.2256 26.8638H68.6176V26.3598H69.1936C69.7216 26.3598 69.9856 26.1918 69.9856 25.8558C69.9856 25.8078 69.9256 25.6038 69.8056 25.2438L68.5816 22.0398H64.0456L62.8576 25.0998C62.8576 25.1238 62.8156 25.2738 62.7316 25.5498C62.6476 25.8138 62.6056 25.9998 62.6056 26.1078C62.6056 26.2038 62.6716 26.2698 62.8036 26.3058C62.9356 26.3418 63.2176 26.3598 63.6496 26.3598H63.9376V26.8638H60.4096V26.3598H60.6616C61.0576 26.3598 61.3456 26.2938 61.5256 26.1618C61.7056 26.0178 61.8616 25.7838 61.9936 25.4598L65.9536 15.1278C66.0136 15.1158 66.1216 15.0318 66.2776 14.8758C66.4336 14.7078 66.5776 14.5398 66.7096 14.3718C66.8416 14.1918 66.9076 14.0898 66.9076 14.0658C66.9076 14.0418 66.9016 14.0238 66.8896 14.0118L67.1416 13.9398L71.5696 25.5318C71.7016 25.8078 71.8336 26.0178 71.9656 26.1618C72.1096 26.2938 72.3136 26.3598 72.5776 26.3598H73.2256V26.8638ZM68.2576 21.2838L66.3136 16.1358L64.3336 21.2838H68.2576ZM73.9536 25.9998L74.2056 23.6598L74.8176 23.6958C74.8176 24.3558 75.2076 24.8898 75.9876 25.2978C76.7796 25.6938 77.6736 25.8918 78.6696 25.8918C79.6776 25.8918 80.4336 25.7418 80.9376 25.4418C81.4416 25.1298 81.6936 24.7398 81.6936 24.2718C81.6936 23.4798 81.2736 22.7718 80.4336 22.1478C80.0856 21.8958 79.7196 21.6738 79.3356 21.4818C78.4596 21.0258 77.9076 20.7378 77.6796 20.6178C77.4636 20.4858 77.2176 20.3538 76.9416 20.2218C76.6656 20.0898 76.4076 19.9518 76.1676 19.8078C75.9396 19.6518 75.6936 19.4658 75.4296 19.2498C74.8296 18.7698 74.5296 18.2358 74.5296 17.6478C74.5296 17.0478 74.6316 16.5258 74.8356 16.0818C75.0516 15.6378 75.3156 15.2898 75.6276 15.0378C75.9516 14.7858 76.3296 14.5758 76.7616 14.4078C77.4936 14.1438 78.3096 14.0118 79.2096 14.0118C80.1216 14.0118 80.9976 14.2398 81.8376 14.6958L81.6216 16.7838H81.0096C81.0096 15.6558 80.0616 15.0918 78.1656 15.0918C77.2896 15.0918 76.6296 15.2298 76.1856 15.5058C75.7536 15.7818 75.5376 16.1598 75.5376 16.6398C75.5376 17.4078 76.7856 18.3318 79.2816 19.4118C80.9256 20.1198 81.9756 20.9058 82.4316 21.7698C82.6596 22.2018 82.7736 22.6758 82.7736 23.1918C82.7736 24.4398 82.2696 25.4058 81.2616 26.0898C80.2656 26.7738 79.0596 27.1158 77.6436 27.1158C76.2276 27.1158 74.9976 26.7438 73.9536 25.9998ZM88.6021 26.8638H84.0301V26.3598H84.6421C85.0021 26.3598 85.2361 26.2878 85.3441 26.1438C85.4521 25.9998 85.5061 25.7958 85.5061 25.5318V15.5958C85.5061 15.3318 85.4521 15.1278 85.3441 14.9838C85.2361 14.8398 85.0021 14.7678 84.6421 14.7678H84.0301V14.2638H88.6021V14.7678H87.9181C87.5581 14.7678 87.3241 14.8398 87.2161 14.9838C87.1081 15.1278 87.0541 15.3318 87.0541 15.5958V25.5318C87.0541 25.7958 87.1081 25.9998 87.2161 26.1438C87.3241 26.2878 87.5581 26.3598 87.9181 26.3598H88.6021V26.8638ZM89.8618 25.9998L90.1138 23.6598L90.7258 23.6958C90.7258 24.3558 91.1158 24.8898 91.8958 25.2978C92.6878 25.6938 93.5818 25.8918 94.5778 25.8918C95.5858 25.8918 96.3418 25.7418 96.8458 25.4418C97.3498 25.1298 97.6018 24.7398 97.6018 24.2718C97.6018 23.4798 97.1818 22.7718 96.3418 22.1478C95.9938 21.8958 95.6278 21.6738 95.2438 21.4818C94.3678 21.0258 93.8158 20.7378 93.5878 20.6178C93.3718 20.4858 93.1258 20.3538 92.8498 20.2218C92.5738 20.0898 92.3158 19.9518 92.0758 19.8078C91.8478 19.6518 91.6018 19.4658 91.3378 19.2498C90.7378 18.7698 90.4378 18.2358 90.4378 17.6478C90.4378 17.0478 90.5398 16.5258 90.7438 16.0818C90.9598 15.6378 91.2238 15.2898 91.5358 15.0378C91.8598 14.7858 92.2378 14.5758 92.6698 14.4078C93.4018 14.1438 94.2178 14.0118 95.1178 14.0118C96.0298 14.0118 96.9058 14.2398 97.7458 14.6958L97.5298 16.7838H96.9178C96.9178 15.6558 95.9698 15.0918 94.0738 15.0918C93.1978 15.0918 92.5378 15.2298 92.0938 15.5058C91.6618 15.7818 91.4458 16.1598 91.4458 16.6398C91.4458 17.4078 92.6938 18.3318 95.1898 19.4118C96.8338 20.1198 97.8838 20.9058 98.3398 21.7698C98.5678 22.2018 98.6818 22.6758 98.6818 23.1918C98.6818 24.4398 98.1778 25.4058 97.1698 26.0898C96.1738 26.7738 94.9678 27.1158 93.5518 27.1158C92.1358 27.1158 90.9058 26.7438 89.8618 25.9998Z" fill="black"/>
</svg>
