<svg width="142" height="130" viewBox="0 0 142 130" fill="none" xmlns="http://www.w3.org/2000/svg">
<path d="M33.9999 62.1001C34.0999 62.1001 34.2999 62.1001 34.3999 62.1001C34.4999 62.1001 34.5999 62.2001 34.6999 62.2001C34.7999 62.2001 34.8999 62.4001 35.0999 62.5001L46.4999 73.3001C46.4999 72.9001 46.3999 72.5001 46.3999 72.2001C46.3999 71.8001 46.3999 71.6001 46.3999 71.1001V58.7001L50.5999 57.6001V79.4001L48.1999 80.0001C47.7999 80.1001 47.4999 80.1001 47.1999 80.1001C46.8999 80.1001 46.6999 79.9001 46.3999 79.7001L34.9999 69.1001C34.9999 69.5001 35.0999 69.7001 35.0999 70.1001C35.0999 70.4001 35.0999 70.7001 35.0999 71.1001V83.8001L30.8999 84.9001V63.0001L33.3999 62.4001C33.6999 62.2001 33.8999 62.2001 33.9999 62.1001Z" fill="#FF9900"/>
<path d="M72.0999 51.8999V55.4999L62.4 58.0999V63.6999L70 61.6999V64.9999L62.4 66.9999V72.6999L72.0999 70.0999V73.6999L57.7 77.5999V55.6999L72.0999 51.8999Z" fill="#FF9900"/>
<path d="M75.8 50.9L79.8 49.8C80.2 49.7 80.6 49.7 80.9 49.8C81.2 49.9 81.4 50.1 81.5 50.4L85 61.8C85.1 62.1 85.2 62.4 85.3 62.9C85.4 63.3 85.5 63.7 85.6 64C85.7 63.5 85.8 63.1 85.9 62.6C86 62.2 86.1 61.7 86.3 61.5L90.4 48.1C90.5 47.8 90.7 47.5 91 47.2C91.3 46.9 91.6 46.7 92 46.6L93.4 46.2C93.8 46.1 94.2 46.1 94.4 46.2C94.7 46.3 94.9 46.5 95 46.8L99 58C99.1 58.3 99.2 58.6 99.3 59C99.4 59.4 99.5 59.8 99.6 60.1C99.7 59.6 99.8 59.2 99.9 58.9C100 58.5 100.1 58.1 100.2 57.8L103.7 44.5C103.8 44.2 104 43.9 104.2 43.6C104.5 43.3 104.8 43.1 105.2 43L108.9 42L101.9 65.8L97.7 66.9L93.1 53.8C93 53.6 92.9 53.4 92.9 53.2C92.8 53 92.8 52.7 92.7 52.6C92.6 52.9 92.6 53.2 92.5 53.4C92.4 53.7 92.4 53.9 92.3 54L87.6 69.6L83.5 70.8L75.8 50.9Z" fill="#FF9900"/>
<path d="M33.7 35.7L49.9 49.4L51.5 48.9L33.7 35.7Z" fill="#FF9900"/>
<path d="M35.8 94.7L38.3 92.5L37.8 92.6L35.8 94.7Z" fill="#FF9900"/>
<path d="M44.3 26.2L57.5 47.4L59.1 46.9L44.3 26.2Z" fill="#FF9900"/>
<path d="M26.7 48.1001L38 52.7001L39.4 52.3001L26.7 48.1001Z" fill="#FF9900"/>
<path d="M112.3 79.9999L101 75.3999L99.8 75.7999L112.3 79.9999Z" fill="#FF9900"/>
<path d="M29.7 41.7L45 50.9L46.5999 50.5L29.7 41.7Z" fill="#FF9900"/>
<path d="M50.6001 22.7L60.6001 46.5999L62.2001 46.0999L50.6001 22.7Z" fill="#FF9900"/>
<path d="M38.6001 30.5L54.0001 48.3L55.6001 47.9L38.6001 30.5Z" fill="#FF9900"/>
<path d="M85.6001 21.3999L77.1001 41.9999L78.7001 41.4999L85.6001 21.3999Z" fill="#FF9900"/>
<path d="M78.7001 19.5L73.1001 43L74.7001 42.6L78.7001 19.5Z" fill="#FF9900"/>
<path d="M92.1001 24.5L82.1001 40.6L83.7001 40.2L92.1001 24.5Z" fill="#FF9900"/>
<path d="M71.5001 18.6001L69.6001 44.0001L71.2001 43.6001L71.5001 18.6001Z" fill="#FF9900"/>
<path d="M57.3 20.3L63.6 45.7001L65.2 45.3L57.3 20.3Z" fill="#FF9900"/>
<path d="M64.3999 18.8999L66.4999 44.8999L68.0999 44.4999L64.3999 18.8999Z" fill="#FF9900"/>
<path d="M24.8 55L27.7001 55.6L28.1 55.5L24.8 55Z" fill="#FF9900"/>
<path d="M103.3 33.3L100.8 35.5L101.2 35.4001L103.3 33.3Z" fill="#FF9900"/>
<path d="M94.6999 101.9L81.4999 80.6001L79.8999 81.1001L94.6999 101.9Z" fill="#FF9900"/>
<path d="M88.4 105.4L78.4 81.5L76.8 82L88.4 105.4Z" fill="#FF9900"/>
<path d="M105.3 92.3001L89 78.6001L87.5 79.0001L105.3 92.3001Z" fill="#FF9900"/>
<path d="M41.1001 99.4999L49.8001 89.3999L48.5001 89.6999L41.1001 99.4999Z" fill="#FF9900"/>
<path d="M109.3 86.5L94 77.3L92.5 77.7L109.3 86.5Z" fill="#FF9900"/>
<path d="M114.3 73.1L111.4 72.5L111 72.6L114.3 73.1Z" fill="#FF9900"/>
<path d="M100.4 97.5001L84.9 79.6001L83.3 80.1001L100.4 97.5001Z" fill="#FF9900"/>
<path d="M53.5 106.5L62 86L60.4 86.4L53.5 106.5Z" fill="#FF9900"/>
<path d="M47 103.5L56.8 87.5L55.2 87.9L47 103.5Z" fill="#FF9900"/>
<path d="M60.3999 108.5L65.9999 84.8999L64.3999 85.3999L60.3999 108.5Z" fill="#FF9900"/>
<path d="M74.6999 109.1L72.4999 83.1001L70.8999 83.5001L74.6999 109.1Z" fill="#FF9900"/>
<path d="M67.5 109.4L69.5 84L67.9 84.4L67.5 109.4Z" fill="#FF9900"/>
<path d="M81.6999 107.8L75.4999 82.3999L73.8999 82.6999L81.6999 107.8Z" fill="#FF9900"/>
<path d="M98 28.5L89.3 38.6L90.5 38.2L98 28.5Z" fill="#FF9900"/>
<path d="M18.4001 35.2C25.9001 22.3 38.2001 12.1 53.9001 7.80002C69.6001 3.60002 85.4001 5.90002 98.6001 13.3C106.7 17.8 113.8 24.3 118.9 32.3L120.6 31.8C115.2 23.4 107.9 16.5 99.4001 11.8C85.8001 4.20002 69.4001 1.70002 53.4001 6.10002C37.3001 10.7 24.5001 21 16.9001 34.4C12.1001 42.8 9.4001 52.5 9.1001 62.4L10.8001 61.9C11.2001 52.5 13.8001 43.4 18.4001 35.2Z" fill="#FF9900"/>
<path d="M17.2 62.2999C17.5 53.8999 19.8 45.5999 24 38.3999C30.9 26.1999 42.1 17.4999 55.5 13.7999C60.0999 12.5999 64.7999 11.8999 69.5 11.8999C78.6 11.8999 87.3999 14.2999 95.3999 18.5999C102.7 22.6999 109.1 28.6999 113.7 35.6999L112.6 35.9999C108.1 29.2999 102 23.5999 94.8999 19.4999C87.2 15.1999 78.4999 12.8999 69.5999 12.8999C64.8999 12.8999 60.4 13.4999 55.9 14.7999C42.6 18.4999 31.4999 27.0999 24.7999 38.8999C20.7999 45.9999 18.5 53.9999 18.1 62.0999L17.2 62.2999Z" fill="#FF9900"/>
<path d="M120.6 92.8C113.3 105.7 100.8 116 85.3001 120.2C69.6001 124.4 53.8001 122.1 40.6001 114.7C32.5001 110.2 25.4001 103.7 20.3001 95.7L18.6001 96.2C23.9001 104.6 31.3001 111.5 39.8001 116.2C53.2001 123.7 69.7001 126.3 85.7001 121.8C101.7 117.3 114.6 106.9 122.2 93.5C127.1 85.1 129.8 75.5 130 65.5L128.3 66C127.9 75.6 125.2 84.7 120.6 92.8Z" fill="#FF9900"/>
<path d="M69.4 116.1C60.2999 116.1 51.5 113.7 43.5 109.4C36.2 105.3 29.8 99.3 25.2 92.3L26.2999 92C30.7999 98.7 36.9 104.4 44 108.5C51.7 112.9 60.4 115.2 69.3 115.2C74 115.2 78.5 114.6 83 113.3C96.2 109.6 107.2 101.1 114 89.3C118 82.2 120.3 74.2 120.6 66.1L121.7 65.8C121.4 74.2 119.1 82.5 114.9 89.7C108 101.8 96.7 110.6 83.3 114.2C78.9 115.5 74.2 116.1 69.4 116.1Z" fill="#FF9900"/>
</svg>
