<svg width="20" height="20" viewBox="0 0 20 20" fill="none" xmlns="http://www.w3.org/2000/svg">
<g clip-path="url(#clip0_167_130)">
<path fill-rule="evenodd" clip-rule="evenodd" d="M14.9679 0.0433207C14.1661 -0.141109 13.3558 0.277921 13.0324 1.02282L13.031 1.02613L11.3104 5.03764C11.0137 5.7299 11.21 6.53753 11.798 7.01412L13.4499 8.36766C12.3087 10.4975 10.5356 12.2889 8.36916 13.4478L7.01335 11.7938C6.53643 11.2118 5.73504 11.0099 5.03852 11.3083L1.03015 13.0248L1.02312 13.0279C0.280505 13.354 -0.1421 14.1654 0.0436041 14.9669L0.901944 18.6904C1.07897 19.455 1.75949 20.0002 2.55071 20.0002C12.1791 20.0002 19.998 12.1996 20 2.55779C20.0054 1.76526 19.4624 1.08212 18.6921 0.905073L14.9679 0.0433207ZM14.5613 1.68641L12.8423 5.69428L15.5238 7.9122L15.2481 8.4996C13.8769 11.4208 11.4842 13.8477 8.50041 15.2457L7.91335 15.5208L5.69495 12.8402L1.69193 14.5545C1.68171 14.5593 1.67462 14.5666 1.67028 14.5751C1.66581 14.5839 1.66708 14.5899 1.66708 14.5899L1.66738 14.5912L2.52566 18.3145C2.52827 18.3255 2.5374 18.3335 2.55071 18.3335C11.2611 18.3335 18.3334 11.2758 18.3334 2.55407V2.54663C18.3334 2.54188 18.3324 2.53849 18.3324 2.53849L18.3307 2.53529L18.3277 2.53265C18.3277 2.53265 18.3243 2.53066 18.3196 2.52957L18.3179 2.52921L14.5942 1.66756C14.5906 1.66675 14.5858 1.66701 14.5858 1.66701C14.5833 1.66734 14.5801 1.6682 14.5767 1.66996C14.5699 1.67342 14.5646 1.67918 14.5613 1.68641Z" fill="white"/>
</g>
<defs>
<clipPath id="clip0_167_130">
<rect width="20" height="20" fill="white"/>
</clipPath>
</defs>
</svg>
