<svg width="40" height="44" viewBox="0 0 40 44" fill="none" xmlns="http://www.w3.org/2000/svg">
<path d="M16.8376 24.46H6.23615C5.90537 24.46 5.58813 24.3168 5.35423 24.062C5.12033 23.8072 4.98892 23.4615 4.98892 23.1011V12.23C4.98892 11.8696 5.12033 11.5239 5.35423 11.2691C5.58813 11.0143 5.90537 10.8711 6.23615 10.8711H15.5904C15.9212 10.8711 16.2384 11.0143 16.4723 11.2691C16.7062 11.5239 16.8376 11.8696 16.8376 12.23V27.1778C16.8376 28.9798 16.1806 30.708 15.0111 31.9822C13.8416 33.2564 12.2554 33.9723 10.6015 33.9723" stroke="#FF9F0D" stroke-width="1.5" stroke-linecap="round" stroke-linejoin="round"/>
<path d="M34.9225 24.46H24.321C23.9902 24.46 23.673 24.3168 23.4391 24.062C23.2052 23.8072 23.0738 23.4615 23.0738 23.1011V12.23C23.0738 11.8696 23.2052 11.5239 23.4391 11.2691C23.673 11.0143 23.9902 10.8711 24.321 10.8711H33.6753C34.006 10.8711 34.3233 11.0143 34.5572 11.2691C34.7911 11.5239 34.9225 11.8696 34.9225 12.23V27.1778C34.9225 28.9798 34.2655 30.708 33.096 31.9822C31.9265 33.2564 30.3403 33.9723 28.6863 33.9723" stroke="#FF9F0D" stroke-width="1.5" stroke-linecap="round" stroke-linejoin="round"/>
<path d="M34.9225 24.46H24.321C23.9902 24.46 23.673 24.3168 23.4391 24.062C23.2052 23.8072 23.0738 23.4615 23.0738 23.1011V12.23C23.0738 11.8696 23.2052 11.5239 23.4391 11.2691C23.673 11.0143 23.9902 10.8711 24.321 10.8711H33.6753C34.006 10.8711 34.3233 11.0143 34.5572 11.2691C34.7911 11.5239 34.9225 11.8696 34.9225 12.23V27.1778C34.9225 28.9798 34.2655 30.708 33.096 31.9822C31.9265 33.2564 30.3403 33.9723 28.6863 33.9723" stroke="#FF9F0D" stroke-width="1.5" stroke-linecap="round" stroke-linejoin="round"/>
</svg>
