<svg width="127" height="22" viewBox="0 0 127 22" fill="none" xmlns="http://www.w3.org/2000/svg">
<path d="M19.429 7.7669L13.2916 6.74619L10.5416 0.357278C10.4817 0.247922 10.3986 0.157769 10.3 0.0952768C10.2014 0.0327841 10.0906 0 9.97788 0C9.86518 0 9.75434 0.0327841 9.65574 0.0952768C9.55713 0.157769 9.47401 0.247922 9.41416 0.357278L6.66414 6.75491L0.529284 7.7669C0.418147 7.77939 0.312432 7.82795 0.224564 7.90688C0.136697 7.98581 0.0703282 8.09182 0.0332594 8.21246C-0.00380939 8.33309 -0.0100381 8.46334 0.0153053 8.58789C0.0406488 8.71244 0.0965112 8.82612 0.176327 8.91557L4.63273 13.9028L3.57894 20.946C3.56545 21.0759 3.58355 21.2074 3.63124 21.3262C3.67893 21.445 3.75435 21.5464 3.84918 21.6192C3.94402 21.692 4.05457 21.7334 4.16864 21.7388C4.28271 21.7442 4.39587 21.7134 4.49561 21.6498L9.97788 18.3463L15.4576 21.6527C15.5574 21.7163 15.6705 21.7471 15.7846 21.7417C15.8986 21.7363 16.0092 21.6949 16.104 21.6221C16.1989 21.5493 16.2743 21.4479 16.322 21.3291C16.3697 21.2103 16.3878 21.0788 16.3743 20.9489L15.323 13.9028L19.7794 8.91557C19.8592 8.82612 19.9151 8.71244 19.9405 8.58789C19.9658 8.46334 19.9596 8.33309 19.9225 8.21246C19.8854 8.09182 19.8191 7.98581 19.7312 7.90688C19.6433 7.82795 19.5376 7.77939 19.4265 7.7669H19.429Z" fill="#FF9F0D"/>
<path d="M46.0366 7.7669L39.8992 6.74619L37.1492 0.357278C37.0893 0.247922 37.0062 0.157769 36.9076 0.0952768C36.809 0.0327841 36.6981 0 36.5855 0C36.4728 0 36.3619 0.0327841 36.2633 0.0952768C36.1647 0.157769 36.0816 0.247922 36.0217 0.357278L33.2717 6.75491L27.1369 7.7669C27.0258 7.77939 26.92 7.82795 26.8322 7.90688C26.7443 7.98581 26.6779 8.09182 26.6409 8.21246C26.6038 8.33309 26.5976 8.46334 26.6229 8.58789C26.6483 8.71244 26.7041 8.82612 26.7839 8.91557L31.2403 13.9028L30.1865 20.946C30.173 21.0759 30.1911 21.2074 30.2388 21.3262C30.2865 21.445 30.3619 21.5464 30.4568 21.6192C30.5516 21.692 30.6622 21.7334 30.7762 21.7388C30.8903 21.7442 31.0035 21.7134 31.1032 21.6498L36.5855 18.3463L42.0652 21.6527C42.1649 21.7163 42.2781 21.7471 42.3921 21.7417C42.5062 21.7363 42.6168 21.6949 42.7116 21.6221C42.8064 21.5493 42.8818 21.4479 42.9295 21.3291C42.9772 21.2103 42.9953 21.0788 42.9818 20.9489L41.9306 13.9028L46.387 8.91557C46.4668 8.82612 46.5227 8.71244 46.548 8.58789C46.5733 8.46334 46.5671 8.33309 46.53 8.21246C46.493 8.09182 46.4266 7.98581 46.3387 7.90688C46.2509 7.82795 46.1452 7.77939 46.034 7.7669H46.0366Z" fill="#FF9F0D"/>
<path d="M72.6442 7.7669L66.5068 6.74619L63.7568 0.357278C63.6969 0.247922 63.6138 0.157769 63.5152 0.0952768C63.4166 0.0327841 63.3058 0 63.1931 0C63.0804 0 62.9695 0.0327841 62.8709 0.0952768C62.7723 0.157769 62.6892 0.247922 62.6293 0.357278L59.8793 6.75491L53.7445 7.7669C53.6334 7.77939 53.5276 7.82795 53.4398 7.90688C53.3519 7.98581 53.2855 8.09182 53.2485 8.21246C53.2114 8.33309 53.2052 8.46334 53.2305 8.58789C53.2559 8.71244 53.3117 8.82612 53.3915 8.91557L57.8479 13.9028L56.7941 20.946C56.7807 21.0759 56.7988 21.2074 56.8464 21.3262C56.8941 21.445 56.9696 21.5464 57.0644 21.6192C57.1592 21.692 57.2698 21.7334 57.3838 21.7388C57.4979 21.7442 57.6111 21.7134 57.7108 21.6498L63.1931 18.3463L68.6728 21.6527C68.7725 21.7163 68.8857 21.7471 68.9997 21.7417C69.1138 21.7363 69.2244 21.6949 69.3192 21.6221C69.414 21.5493 69.4895 21.4479 69.5371 21.3291C69.5848 21.2103 69.6029 21.0788 69.5894 20.9489L68.5382 13.9028L72.9946 8.91557C73.0744 8.82612 73.1303 8.71244 73.1556 8.58789C73.1809 8.46334 73.1747 8.33309 73.1376 8.21246C73.1006 8.09182 73.0342 7.98581 72.9463 7.90688C72.8585 7.82795 72.7528 7.77939 72.6416 7.7669H72.6442Z" fill="#FF9F0D"/>
<path d="M99.2518 7.7669L93.1144 6.74619L90.3644 0.357278C90.3046 0.247922 90.2214 0.157769 90.1228 0.0952768C90.0242 0.0327841 89.9134 0 89.8007 0C89.688 0 89.5772 0.0327841 89.4786 0.0952768C89.38 0.157769 89.2968 0.247922 89.237 0.357278L86.487 6.75491L80.3521 7.7669C80.241 7.77939 80.1353 7.82795 80.0474 7.90688C79.9595 7.98581 79.8932 8.09182 79.8561 8.21246C79.819 8.33309 79.8128 8.46334 79.8382 8.58789C79.8635 8.71244 79.9194 8.82612 79.9992 8.91557L84.4556 13.9028L83.4018 20.946C83.3883 21.0759 83.4064 21.2074 83.4541 21.3262C83.5018 21.445 83.5772 21.5464 83.672 21.6192C83.7668 21.692 83.8774 21.7334 83.9915 21.7388C84.1055 21.7442 84.2187 21.7134 84.3184 21.6498L89.8007 18.3463L95.2804 21.6527C95.3802 21.7163 95.4933 21.7471 95.6074 21.7417C95.7214 21.7363 95.832 21.6949 95.9268 21.6221C96.0217 21.5493 96.0971 21.4479 96.1448 21.3291C96.1925 21.2103 96.2106 21.0788 96.1971 20.9489L95.1458 13.9028L99.6022 8.91557C99.682 8.82612 99.7379 8.71244 99.7632 8.58789C99.7886 8.46334 99.7824 8.33309 99.7453 8.21246C99.7082 8.09182 99.6418 7.98581 99.554 7.90688C99.4661 7.82795 99.3604 7.77939 99.2493 7.7669H99.2518Z" fill="#FF9F0D"/>
<path d="M125.859 7.7669L119.722 6.74619L116.972 0.357278C116.912 0.247922 116.829 0.157769 116.73 0.0952768C116.632 0.0327841 116.521 0 116.408 0C116.296 0 116.185 0.0327841 116.086 0.0952768C115.988 0.157769 115.904 0.247922 115.845 0.357278L113.095 6.75491L106.96 7.7669C106.849 7.77939 106.743 7.82795 106.655 7.90688C106.567 7.98581 106.501 8.09182 106.464 8.21246C106.427 8.33309 106.42 8.46334 106.446 8.58789C106.471 8.71244 106.527 8.82612 106.607 8.91557L111.063 13.9028L110.009 20.946C109.996 21.0759 110.014 21.2074 110.062 21.3262C110.109 21.445 110.185 21.5464 110.28 21.6192C110.374 21.692 110.485 21.7334 110.599 21.7388C110.713 21.7442 110.826 21.7134 110.926 21.6498L116.408 18.3463L121.888 21.6527C121.988 21.7163 122.101 21.7471 122.215 21.7417C122.329 21.7363 122.44 21.6949 122.534 21.6221C122.629 21.5493 122.705 21.4479 122.752 21.3291C122.8 21.2103 122.818 21.0788 122.805 20.9489L121.753 13.9028L126.21 8.91557C126.29 8.82612 126.346 8.71244 126.371 8.58789C126.396 8.46334 126.39 8.33309 126.353 8.21246C126.316 8.09182 126.249 7.98581 126.162 7.90688C126.074 7.82795 125.968 7.77939 125.857 7.7669H125.859Z" fill="#FF9F0D"/>
</svg>
