<svg width="205" height="177" viewBox="0 0 205 177" fill="none" xmlns="http://www.w3.org/2000/svg">
<path d="M153.951 33.4813C153.951 33.4813 152.854 31.1631 162.637 22.3457C172.42 13.5284 188.547 25.7834 188.547 25.7834C188.547 25.7834 176.967 12.6736 164.173 9.88813C151.379 7.10263 140.085 22.93 137.994 27.467C135.901 31.9983 139.751 31.5424 144.586 28.5663C149.421 25.5902 145.863 1.65578 145.863 1.65578C145.863 1.65578 136.956 10.8294 126.802 23.6581C116.648 36.4868 111.683 37.811 107.703 40.8786C103.728 43.9452 95.869 45.6871 91.9911 43.8123C88.1132 41.9375 79.9108 28.4657 64.5489 24.8632C49.1869 21.2607 35.3821 25.386 35.3821 25.386C35.3821 25.386 49.3456 27.9589 55.8559 32.9572C62.3662 37.9556 59.9863 44.6139 64.054 46.1846C68.1217 47.7553 74.1925 39.7712 67.1336 39.1387C60.0746 38.5061 40.7119 34.4943 33.3354 42.3425C25.9589 50.1907 11.4895 60.4029 0.931226 59.2674C0.931226 59.2674 24.7294 63.9403 36.316 56.0535C47.9025 48.1667 63.0413 55.6245 63.0413 55.6245L85.338 56.4721C85.338 56.4721 95.6354 55.8284 95.4517 40.5848C95.2679 25.3413 98.0796 13.4221 101.184 13.3623L110.282 16.3239C110.282 16.3239 102.43 21.7379 106.706 36.6729C110.983 51.6078 113.033 50.3898 113.033 50.3898M102.884 55.2517C111.808 52.9312 128.883 36.9356 146.069 33.7207C168.806 29.4694 196.34 45.4404 202.855 86.3023C208.854 123.932 182.277 164.145 132.733 173.455C75.7079 184.167 39.3573 165.771 25.665 119.13C15.0913 83.091 32.9589 60.7976 49.9064 56.5995C65.5775 52.7156 86.084 59.6208 102.884 55.2517ZM65.8457 67.0849C82.3443 63.2275 94.8488 70.342 100.058 84.5187C103.276 93.2796 109.613 122.611 111.397 132.376C113.18 142.14 113.264 158.191 93.5351 160.573C75.5527 162.739 63.4852 156.238 53.685 141.598C43.9596 127.073 35.3108 103.027 41.7561 86.8023C48.2015 70.5779 56.599 69.2494 65.8457 67.0849ZM146.073 50.4404C155.168 48.7421 173.522 48.7959 179.183 64.0504C184.838 79.3059 189.712 107.661 182.331 123.278C174.951 138.9 157.36 156.983 137.746 145.584C122.909 136.96 116.392 76.1484 121.426 66.676C128.646 53.0928 146.073 50.4404 146.073 50.4404ZM79.0404 76.5351C76.6064 77.4392 74.3933 80.0542 78.1286 85.7984C82.3485 92.2815 86.9198 92.9639 86.6642 86.5349C86.3648 78.8409 82.5191 75.2431 79.0404 76.5351ZM136.791 64.8174C134.152 64.7787 131.075 66.3869 132.447 72.9812C133.997 80.4244 138.064 82.6726 140.243 76.7C142.849 69.5381 140.565 64.8719 136.791 64.8174ZM162.412 65.3538C160.008 64.1967 156.463 64.3039 154.752 70.6971C152.82 77.9142 155.533 81.63 160.22 77.2976C165.843 72.0953 165.851 67.0069 162.412 65.3538ZM175.574 95.8405C175.964 93.3149 174.743 90.0212 167.881 89.9418C160.134 89.8465 157.315 93.2696 163.079 96.626C169.989 100.65 175.02 99.454 175.574 95.8405ZM169.185 120.739C170.883 118.839 171.586 115.478 165.637 111.917C158.922 107.891 154.621 109.302 157.846 115.03C161.716 121.894 166.758 123.458 169.185 120.739ZM152.367 140.08C154.754 139.079 156.85 136.369 152.881 130.768C148.395 124.445 143.809 123.953 144.336 130.372C144.964 138.069 148.953 141.517 152.367 140.08ZM57.6953 86.1097C55.6009 87.5928 54.1634 90.6937 59.2288 95.3954C64.9499 100.705 69.5009 100.246 67.5915 94.0207C65.3083 86.5687 60.6925 83.9907 57.6953 86.1097ZM51.777 116.766C51.9506 119.332 53.8567 122.329 60.5202 120.991C68.0417 119.482 70.0262 115.525 63.7098 113.405C56.1337 110.866 51.5243 113.087 51.777 116.766ZM66.05 141.217C67.8214 143.193 71.1756 144.465 75.3823 139.363C80.1344 133.599 79.1157 129.199 72.966 131.299C65.6051 133.813 63.5189 138.396 66.05 141.217ZM87.1491 152.356C89.3403 153.869 92.8816 154.323 95.645 148.329C98.7654 141.556 96.6887 137.487 91.3075 140.998C84.8593 145.203 84.0048 150.187 87.1491 152.356Z" stroke="#FF0000" stroke-miterlimit="10"/>
</svg>
