<svg width="142" height="130" viewBox="0 0 142 130" fill="none" xmlns="http://www.w3.org/2000/svg">
<g clip-path="url(#clip0_80_57)">
<path d="M82.6001 102.6C74.3001 106.1 67.9001 108.7 56.2001 100.1C48.3001 94.3999 43.9001 86.3999 40.7001 77.9999C42.2001 80.1999 44.1001 82.1999 45.9001 84.0999C47.6001 85.9999 49.2001 87.9999 50.6001 90.0999C52.0001 92.1999 53.6001 94.3999 55.7001 95.8999C57.6001 97.2999 59.8001 97.6999 62.3001 97.7999C63.9001 97.8999 65.1001 97.9999 66.5001 98.6999C67.7001 99.1999 68.6001 99.7999 70.0001 99.9999C71.9001 100.4 74.0001 100.1 75.6001 98.8999C76.3001 98.2999 76.8001 97.5999 77.3001 96.8999C78.2001 95.3999 78.7001 94.0999 80.6001 93.2999C82.6001 92.2999 84.1001 91.0999 84.5001 88.9999C85.0001 86.5999 83.9001 84.1999 83.4001 81.7999C82.9001 79.4999 83.1001 77.2999 81.8001 75.2999C80.8001 73.6999 79.2001 72.1999 77.8001 70.8999C76.1001 69.3999 74.2001 67.6999 73.0001 65.6999C71.5001 63.2999 70.4001 60.5999 68.6001 58.3999C66.8001 56.2999 64.2001 55.1999 61.9001 53.7999C59.4001 52.2999 57.9001 49.7999 55.6001 47.9999C53.4001 46.1999 50.7001 45.4999 47.9001 44.4999C46.3001 43.8999 44.8001 43.0999 43.7001 41.8999C42.7001 40.8999 41.9001 39.7999 40.7001 38.7999C40.0001 38.1999 37.1001 36.5999 35.1001 36.3999C35.3001 36.2999 35.5001 36.1999 35.7001 36.1999C36.9001 35.8999 38.3001 37.0999 39.4001 37.6999C42.2001 39.1999 45.3001 40.1999 48.2001 41.1999C54.2001 43.3999 59.6001 46.3999 64.0001 50.6999C68.4001 55.1999 73.1001 59.4999 77.2001 64.2999C79.0001 66.5999 80.7001 69.0999 82.3001 71.5999C83.5001 73.2999 84.8001 74.9999 86.1001 76.5999C86.4001 77.0999 86.7001 77.5999 87.1001 78.0999C92.7001 86.0999 95.2001 97.2999 82.6001 102.6ZM36.3001 71.7999C35.6001 68.8999 35.0001 66.0999 34.4001 63.1999C33.8001 60.3999 33.0001 57.6999 32.5001 54.8999C32.0001 52.1999 31.6001 49.3999 31.8001 46.7999C31.9001 44.9999 31.9001 43.1999 32.2001 41.2999C32.2001 42.3999 32.3001 43.4999 32.4001 44.5999C33.0001 50.8999 33.6001 56.9999 35.3001 63.0999C37.9001 72.4999 40.6001 82.5999 46.4001 90.8999C41.6001 85.1999 38.0001 78.7999 36.3001 71.7999ZM33.1001 39.2999C33.2001 39.0999 33.2001 38.8999 33.3001 38.7999C33.8001 40.0999 33.8001 41.3999 33.9001 42.7999C34.0001 44.5999 34.3001 46.2999 34.5001 48.2999C34.8001 49.7999 35.1001 51.4999 35.3001 53.0999C35.5001 54.8999 35.4001 56.6999 35.5001 58.5999C35.6001 60.4999 35.7001 62.2999 36.0001 64.1999C35.1001 60.9999 34.4001 57.8999 33.9001 54.6999C33.5001 51.8999 33.3001 49.1999 33.1001 46.2999C33.0001 43.8999 32.6001 41.4999 33.1001 39.2999ZM49.9001 85.7999C50.4001 86.0999 51.0001 86.3999 51.4001 86.7999C51.9001 87.2999 52.6001 87.8999 53.1001 88.3999C55.2001 90.5999 56.8001 93.1999 60.1001 94.0999C63.9001 95.2999 69.9001 94.4999 71.8001 90.9999C72.5001 89.6999 73.4001 89.4999 74.8001 88.7999C75.6001 88.3999 76.4001 88.0999 76.8001 87.3999C77.6001 86.1999 76.8001 84.6999 76.2001 83.4999C75.3001 81.7999 75.7001 80.3999 76.0001 78.6999C76.4001 76.8999 75.7001 75.1999 74.8001 73.4999C73.6001 71.3999 72.4001 69.3999 71.4001 67.1999C70.4001 65.0999 69.2001 63.1999 67.7001 61.3999C65.8001 58.8999 63.6001 56.8999 61.1001 54.8999C62.7001 55.8999 64.5001 56.5999 65.9001 57.7999C69.8001 60.7999 70.7001 65.7999 74.2001 69.2999C76.9001 71.9999 81.0001 74.4999 81.6001 78.2999C81.8001 79.3999 81.8001 80.3999 82.0001 81.3999C82.2001 82.4999 82.5001 83.7999 82.8001 84.8999C83.4001 87.2999 83.7001 89.8999 81.3001 91.4999C80.5001 92.0999 79.5001 92.3999 78.6001 92.8999C77.6001 93.4999 77.1001 94.3999 76.6001 95.3999C75.5001 97.1999 74.5001 98.8999 71.8001 99.0999C70.5001 99.1999 69.2001 98.8999 68.1001 98.3999C67.1001 97.8999 66.3001 97.3999 65.3001 97.1999C63.0001 96.5999 60.6001 97.1999 58.4001 96.2999C55.7001 95.1999 53.9001 92.8999 52.4001 90.7999C51.0001 88.7999 49.7001 86.7999 48.1001 84.9999C48.6001 85.1999 49.3001 85.3999 49.9001 85.7999ZM46.8001 83.3999C44.0001 80.4999 40.9001 77.8999 39.4001 74.4999C39.1001 73.6999 38.9001 72.9999 38.6001 72.0999C39.5001 73.5999 40.6001 74.9999 41.8001 76.2999C42.4001 76.9999 43.0001 77.7999 43.6001 78.4999C44.6001 79.5999 45.6001 80.4999 46.2001 81.7999C46.4001 82.3999 46.5001 82.8999 46.8001 83.3999ZM43.3001 76.9999C41.3001 74.5999 38.7001 71.8999 37.6001 68.9999C37.5001 68.7999 37.4001 68.4999 37.3001 68.3999C37.3001 68.2999 37.3001 68.2999 37.3001 68.1999C37.3001 68.1999 37.3001 68.1999 37.3001 68.0999C37.3001 67.9999 37.2001 67.8999 37.2001 67.7999V67.6999C37.2001 67.5999 37.2001 67.5999 37.1001 67.4999C37.0001 66.9999 36.9001 66.3999 36.9001 65.9999C36.9001 65.9999 36.9001 65.9999 36.9001 65.8999C36.8001 65.1999 36.6001 64.4999 36.5001 63.7999C36.5001 63.4999 36.4001 63.2999 36.4001 62.9999C36.0001 60.9999 35.9001 59.0999 35.9001 57.0999C35.9001 55.4999 35.9001 53.6999 35.7001 51.9999C35.5001 50.2999 35.1001 48.4999 34.8001 46.5999C34.4001 44.1999 34.6001 41.4999 33.7001 39.0999C37.4001 38.5999 40.5001 42.7999 42.5001 45.1999C45.3001 48.4999 48.9001 50.4999 52.8001 52.4999C55.3001 53.6999 57.6001 54.9999 59.7001 56.7999C61.7001 58.3999 63.5001 60.2999 65.2001 62.2999C67.3001 64.7999 69.2001 67.4999 70.5001 70.2999C71.1001 70.9999 73.4001 73.7999 74.0001 74.9999C74.4001 75.6999 74.5001 76.3999 74.5001 76.9999C74.4001 76.9999 74.5001 77.3999 74.5001 77.4999C74.5001 78.1999 74.3001 78.9999 74.1001 79.6999V79.7999C74.1001 80.0999 74.0001 80.2999 74.0001 80.6999C74.0001 81.1999 74.0001 81.7999 74.0001 82.1999C74.1001 82.5999 74.2001 82.7999 74.3001 83.1999C74.3001 83.2999 74.4001 83.2999 74.4001 83.3999C74.6001 83.8999 75.5001 84.3999 75.7001 86.1999C75.6001 87.1999 74.5001 87.5999 73.6001 87.7999C72.8001 88.0999 72.1001 88.2999 71.5001 88.8999C70.7001 89.5999 70.5001 90.5999 69.8001 91.3999C69.1001 92.0999 68.1001 92.5999 66.9001 92.8999C67.1001 92.6999 63.4001 93.9999 60.0001 92.4999C57.7001 91.4999 56.0001 89.8999 54.1001 88.1999C53.5001 87.6999 52.9001 87.0999 52.5001 86.6999C51.6001 85.7999 50.6001 85.1999 49.5001 84.5999C49.2001 84.3999 48.9001 84.1999 48.7001 84.0999C47.9001 83.5999 47.3001 82.9999 47.0001 81.9999C46.4001 80.0999 44.8001 78.6999 43.3001 76.9999ZM46.4001 45.3999C46.8001 45.5999 47.2001 45.7999 47.6001 45.8999C49.8001 46.6999 52.1001 47.2999 54.0001 48.5999C55.9001 49.8999 57.4001 51.8999 59.0001 53.3999C58.3001 52.8999 57.5001 52.2999 56.8001 51.8999C53.4001 49.4999 49.7001 47.6999 46.4001 45.3999ZM33.9001 37.6999C37.4001 36.9999 39.9001 40.4999 42.0001 42.5999C45.3001 45.8999 49.5001 47.9999 53.3001 50.3999C57.2001 52.8999 60.9001 55.7999 64.2001 58.8999C65.7001 60.3999 67.1001 62.0999 68.3001 63.8999C68.8001 64.5999 69.2001 65.2999 69.6001 66.0999C69.3001 65.6999 69.1001 65.3999 68.9001 64.9999C65.8001 60.5999 62.1001 56.4999 57.3001 53.6999C54.8001 52.2999 52.1001 51.1999 49.5001 49.7999C47.2001 48.4999 45.3001 46.9999 43.6001 45.0999C41.3001 42.4999 38.2001 37.8999 34.0001 38.3999C33.9001 38.3999 33.8001 38.3999 33.8001 38.4999C33.7001 38.3999 33.7001 38.1999 33.6001 38.0999C33.7001 37.9999 33.7001 37.8999 33.9001 37.6999ZM89.1001 78.1999C84.9001 73.1999 81.7001 67.6999 77.4001 62.6999C71.2001 55.4999 64.1001 47.3999 55.1001 42.8999C52.1001 41.3999 49.0001 40.1999 45.8001 39.0999C44.4001 38.5999 42.7001 37.9999 41.4001 37.1999C40.1001 36.3999 38.9001 34.9999 37.1001 34.9999C37.2001 34.6999 32.5001 35.8999 31.6001 37.5999C30.6001 39.4999 30.4001 42.0999 30.3001 44.0999C30.0001 48.9999 30.9001 53.7999 31.9001 58.3999C33.6001 65.8999 34.6001 73.7999 38.0001 80.8999C40.5001 85.9999 43.9001 90.6999 47.7001 94.8999C52.3001 99.8999 57.9001 104.7 64.7001 107.1C70.6001 109.1 76.4001 107.6 81.6001 105.1C85.4001 103.3 89.6001 101.4 91.9001 97.8999C96.1001 91.9999 93.5001 83.3999 89.1001 78.1999Z" fill="#FF9900"/>
<path d="M95.6999 29.2001C95.5999 28.4001 95.3999 27.6001 95.1999 26.7001C95.0999 26.5001 95.0999 26.2001 94.9999 26.1001C94.8999 26.5001 94.8999 26.7001 94.8999 27.1001C94.8999 29.3001 94.9999 31.4001 94.9999 33.6001C95.3999 33.6001 95.7999 33.6001 96.1999 33.6001C96.0999 32.1001 95.8999 30.6001 95.6999 29.2001Z" fill="#FF9900"/>
<path d="M75.4 42.1999C75.7 41.8999 76 41.5999 76.3 41.2999L75.2 40.3999C74.4 39.7999 73.6 39.0999 72.8 38.4999C71.6 37.4999 70.2 36.4999 69.1 35.4999L67.7 34.3999C67.8 34.4999 67.8 34.5999 67.9 34.6999C70.4 37.2999 72.9 39.6999 75.4 42.1999Z" fill="#FF9900"/>
<path d="M99.3 33.7C99.3 32.5 99.3 31.1999 99.3 30.2999C99.3 28.8999 99.2 27.5 99.1 26.1L99 24.7V24.7999L98.9 25.6C98.6 28.2 98.4 31.1 98.2 33.7C98.5 33.7 98.7 33.6999 98.9 33.7999C99 33.5999 99.2 33.7 99.3 33.7Z" fill="#FF9900"/>
<path d="M102.8 33.6C103.1 28.5 103.3 23.8 103.1 19C103.1 19.1 103.1 19.1 103.1 19.2C102.5 24.2 101.9 29.1 101.4 34C101.9 34.1 102.4 34.2 102.9 34.3V33.6H102.8Z" fill="#FF9900"/>
<path d="M93.3999 33C93.1999 31.6 92.9999 30.1 92.8999 28.7C92.6999 27.5 92.3999 26.2 92.1999 25C92.0999 24.5 91.9999 24.1 91.8999 23.7C91.8999 23.8 91.8999 23.9 91.8999 24C91.9999 27.4 92.0999 30.6 92.1999 34C92.6999 33.9 93.0999 33.9 93.4999 33.7999V33H93.3999Z" fill="#FF9900"/>
<path d="M76.8001 32.5C78.1001 34.3 79.5001 36.1 80.7001 38C81.1001 37.8 81.4001 37.5001 81.8001 37.4001C80.9001 36.4001 80.2001 35.5 79.2001 34.5C78.4001 33.5 77.5001 32.7 76.6001 31.8C76.2001 31.4 76.0001 31.2 75.6001 30.8C75.7001 31 75.8001 31.1 75.9001 31.3C76.3001 31.5 76.6001 32 76.8001 32.5Z" fill="#FF9900"/>
<path d="M86.9 35.1C87.3 35 87.6 34.9 87.9 34.7C87.4 33.4 86.8 32.1 86.3 30.8C86.1 30.3 85.8 30 85.6 29.6C85.6 29.6 85.6 29.5 85.5 29.5L85.8 30.6C86.1 32.1 86.5 33.5 86.9 35.1Z" fill="#FF9900"/>
<path d="M88.8001 34.5C89.3001 34.4 89.6001 34.3 90.0001 34.2L89.6001 33.1C89.0001 31.2 88.4001 29.2 87.8001 27.3C87.4001 26.2 87.1001 25.2 86.6001 24.1C86.4001 23.7 86.3001 23.4 86.1001 23C86.1001 23.2 86.1001 23.4 86.1001 23.5C87.1001 27.2 88.0001 30.9 88.8001 34.5Z" fill="#FF9900"/>
<path d="M105.9 34.9C106.1 33.9 106.4 33.0999 106.5 32.0999C106.9 30.2999 107.3 28.6 107.7 26.6C107.9 25.9 108 25.0999 108.1 24.2999C108.1 24.0999 108.2 23.9 108.2 23.7C108.2 23.7 108.2 23.7999 108.1 23.7999C107.9 24.1999 107.7 24.5 107.6 24.9C107.1 26.4999 106.5 28.1999 106 29.7999C105.5 31.2999 105 33 104.5 34.4C104.5 34.5 104.4 34.6 104.4 34.7C104.9 34.9 105.3 35 105.8 35.2C105.9 35.1 105.9 35 105.9 34.9Z" fill="#FF9900"/>
<path d="M83.3999 36.4999C83.7999 36.2999 84.1999 36.0999 84.5999 35.9999C83.7999 34.6999 82.9999 33.2999 82.1999 31.9999C81.2999 30.4999 80.5999 28.9999 79.5999 27.4999C79.3999 27.0999 79.0999 26.7999 78.8999 26.3999V26.4999C80.4999 29.7999 81.7999 33.1999 83.3999 36.4999Z" fill="#FF9900"/>
<path d="M123.3 51.5999C123.5 52.0999 123.7 52.5 123.8 52.9C125 52.3 126 51.7 127.2 51.2C128.8 50.4 130.3 49.6 131.9 48.7C133 48.1 134.1 47.4999 135.2 46.7999C135.6 46.5999 135.9 46.3 136.3 46.2C136 46.3 135.8 46.3 135.5 46.5C133.2 47.5 130.9 48.4 128.7 49.4C126.9 50.1 125.2 50.8999 123.3 51.5999Z" fill="#FF9900"/>
<path d="M107 35.5999C107.5 35.7999 107.9 35.9999 108.2 36.0999C108.7 33.9999 109.4 31.8999 109.8 29.7999C110.1 28.6999 110.3 27.4999 110.5 26.4C110.6 25.9 110.7 25.6 110.7 25.2C110.6 25.4 110.5 25.5 110.5 25.7C110.2 26.2 110 26.7 109.8 27.2C109 29.4 108.3 31.6 107.5 33.7L107 35.5999Z" fill="#FF9900"/>
<path d="M126 76.4C126.5 76.6 127 76.8 127.4 76.9C127.5 76.9 127.5 76.9 127.6 77C127.6 77 127.6 77 127.5 77C127.1 76.7 126.8 76.5 126.4 76.3C125.2 75.7 124.1 75.1 122.9 74.5C122.8 74.8 122.7 75 122.5 75.2C123.8 75.4 124.9 75.9 126 76.4Z" fill="#FF9900"/>
<path d="M133.7 53.5C133.8 53.4 134 53.4 134.1 53.3C134 53.3 134 53.3 133.9 53.3C133.7 53.3 133.5 53.3 133.4 53.3C133.3 53.3 132.9 53.3001 132.8 53.4001C130.1 53.9001 127.2 54.4 124.5 54.8C124.6 55.3 124.7 55.6 124.8 56L126 55.6C128 55.1 129.9 54.5 132 54.1C132.6 54.1 133.1 53.8 133.7 53.5Z" fill="#FF9900"/>
<path d="M125.3 58.2C125.4 58.7 125.5 59.2 125.5 59.7L125.9 59.5999C128.9 59.0999 131.9 58.5 134.9 58C136.1 57.7 137.4 57.4999 138.6 57.0999C139.1 56.9999 139.6 56.8 140 56.7C139.8 56.7 139.6 56.7 139.5 56.7C139.2 56.7 139 56.7 138.7 56.7C138.4 56.7 138.1 56.6999 137.8 56.7999C135.3 57.0999 132.8 57.4 130.3 57.7L125.3 58.2Z" fill="#FF9900"/>
<path d="M129.3 62C128.1 62 126.7 61.9 125.6 61.8C125.6 62.3 125.6 62.7 125.6 63.1C126.3 63 127 63.0001 127.7 62.9001C129.1 62.8001 130.6 62.7 132 62.6C132.8 62.5 133.5 62.4001 134.3 62.2001C134.5 62.2001 134.8 62.1 134.9 62.1C134.6 62 134.3 61.9001 134 61.9001C132.5 62.1001 130.8 62 129.3 62Z" fill="#FF9900"/>
<path d="M122.4 49.3999L123.8 48.5999C126.3 47.2999 128.8 45.8999 131.3 44.5999C131.7 44.3999 131.9 44.0999 132.3 43.8999C132.1 43.8999 131.9 43.9999 131.8 44.0999C128.4 45.4999 125.1 46.8999 121.8 48.2999C122 48.6999 122.1 49.0999 122.4 49.3999Z" fill="#FF9900"/>
<path d="M113.6 39.3999C114.8 37.2999 116 35.1999 117.2 33.0999C117.5 32.5999 117.7 31.9999 117.9 31.4999C118 31.2999 118.1 30.9999 118.1 30.8999C118 30.9999 117.8 31.1999 117.7 31.2999C117.3 31.6999 117 31.9999 116.7 32.3999C115.4 34.4999 114 36.5999 112.7 38.6999C113.1 38.7999 113.4 39.0999 113.6 39.3999Z" fill="#FF9900"/>
<path d="M111.1 37.6L112.1 35.3C112.8 33.6 113.6 31.8 114.3 30C114.5 29.6 114.6 29.2 114.7 28.9C114.7 28.9 114.7 28.9 114.7 28.8C114.4 29.1 114.2 29.3 114.1 29.6C113.4 30.8001 112.7 32.1 112 33.3C111.3 34.4 110.7 35.7 110 36.8C110.4 37.2 110.7 37.5 111.1 37.6Z" fill="#FF9900"/>
<path d="M119 44.5L119.9 43.5999C121.3 42.1999 122.8 40.6999 124.2 39.2999C124.7 38.7999 125.2 38.2 125.6 37.7C125.8 37.5 125.9 37.3 126.1 37.2C125.8 37.3 125.6 37.5 125.4 37.7C123 39.7 120.6 41.5999 118.3 43.5999C118.5 43.6999 118.8 44.1 119 44.5Z" fill="#FF9900"/>
<path d="M115.7 40.7999C116.1 41.0999 116.4 41.3999 116.7 41.7999L116.9 41.5C118.4 39.1 119.9 36.9 121.4 34.5C121.6 34.2 121.7 34 121.8 33.7L121.7 33.7999C121.3 34.0999 121.1 34.4 120.8 34.7C120 35.7 119.2 36.5999 118.4 37.5999C117.4 38.6999 116.5 39.7999 115.7 40.7999Z" fill="#FF9900"/>
<path d="M120 45.5C120.2 46 120.5 46.4 120.7 46.7L123.3 44.6C125.3 43 127.3 41.2 129.4 39.6C129.9 39.1 130.4 38.7 130.8 38.3C130.9 38.2 131 38.1 131.1 38C131 38 131 38.1 130.9 38.1C130.4 38.4 129.9 38.6 129.5 38.9C127.9 40 126.3 41.1 124.7 42.2C123.1 43.3 121.6 44.5 120 45.5Z" fill="#FF9900"/>
<path d="M73.8 34.4999C75.1 36.1999 76.5 37.9999 78 39.9999C78.4 39.6999 78.7 39.4999 79 39.1999C77.5 37.6999 75.9 36.0999 74.7 34.9999C74.3 34.6999 74 34.4999 73.5 34.0999C73.4 33.9999 73.3 33.9999 73.2 33.8999L73.8 34.4999Z" fill="#FF9900"/>
<path d="M114 89.4L112.5 86.8L112.4 86.9C112 87.1 111.8 87.4 111.4 87.5L112.8 89.5C114 91.2 115.3 92.9 116.5 94.7C116.7 95 117 95.2 117.3 95.5C117.2 95.3 117.1 95 117 94.9C116.1 93.1 115.1 91.3 114 89.4Z" fill="#FF9900"/>
<path d="M73.1 44.6C73.4 44.2 73.6 43.9 74 43.5C73 42.9 72.2 42.3 71.2 41.8C69.8 40.9 68.4 40.1 67 39.1C66.4 38.7 65.8 38.4 65.3 38.1C65.1 38 65 37.9 64.8 37.8C64.9 37.9 64.9 38 65 38.1C67.7 40.3 70.4 42.5 73.1 44.6Z" fill="#FF9900"/>
<path d="M117.8 84L117.1 83.2C116.8 83.5 116.6 83.7 116.4 83.9C118.2 85.5 120.1 87.3 122.1 88.9C122.5 89.3 122.9 89.5 123.3 89.8C123 89.4 122.8 89 122.4 88.7C120.7 87.1 119.2 85.5 117.8 84Z" fill="#FF9900"/>
<path d="M112.8 97.4001C112.1 95.5001 111.5 93.6001 110.8 91.8001L109.6 88.6001C109.2 88.8001 108.8 89.0001 108.4 89.1001C109.8 92.1001 111.1 95.0001 112.5 97.9001C112.6 98.2001 112.9 98.4001 113 98.7001V98.6001C113.1 98.2001 113 97.8001 112.8 97.4001Z" fill="#FF9900"/>
<path d="M107.3 89.5C106.9 89.6 106.7 89.8 106.3 89.9C106.8 91.3 107.5 92.7 107.9 94C108.1 94.5 108.4 94.8 108.5 95.1C108.6 95.2 108.6 95.3 108.7 95.4L108.4 94.5C108.2 92.9 107.8 91.3 107.3 89.5Z" fill="#FF9900"/>
<path d="M116.6 86.9L115.4 84.7C115 85.1 114.7 85.3 114.2 85.6L115.4 87.1C117.5 90.1 119.6 93 121.7 96C121.9 96.3 122.1 96.5 122.3 96.7C122.2 96.4 122 96.1 121.9 95.8C120.1 93 118.3 89.9 116.6 86.9Z" fill="#FF9900"/>
<path d="M135.9 69.7C133.5 69.2 131.1 68.8 128.7 68.3L125.4 67.7C125.3 67.7 125.2 67.7 125.1 67.7C125 67.7 125 67.7 124.9 67.7C124.8 68.2 124.7 68.6 124.6 69C124.7 69.1 124.9 69.1 125.1 69.2C126.5 69.3 127.9 69.5 129.3 69.7C130.9 69.9 132.6 70.1 134.2 70.2C134.9 70.3 135.7 70.3 136.4 70.2C136.6 70.2 136.8 70.2 136.9 70.2C136.7 69.9 136.3 69.7 135.9 69.7Z" fill="#FF9900"/>
<path d="M118.6 81.3999C118.3 81.6999 118.1 81.9999 117.8 82.2999C120 83.6999 122.1 84.9999 124.3 86.2999C124.7 86.5999 125.1 86.7999 125.5 86.8999C125.6 86.8999 125.7 86.9999 125.7 86.9999C125.5 86.7999 125.4 86.5999 125.2 86.4999C123.1 84.6999 120.8 83.0999 118.6 81.3999Z" fill="#FF9900"/>
<path d="M139.5 64.9C137.8 64.8 135.9 64.6 134.2 64.6C131.3 64.6 128.3 64.5 125.5 64.5C125.5 65 125.4 65.5 125.3 66C126.7 66 128.2 65.9 129.6 65.8C133.3 65.6 136.6 65.4 140 65.1C140.5 65.1 140.8 65 141.2 64.9C140.7 65 140.1 64.9 139.5 64.9Z" fill="#FF9900"/>
<path d="M125.3 77.9C124.2 77.3 123.3 76.6 122.2 76C122 76.4 121.8 76.7 121.6 77.1L122.7 77.6C125.3 78.8 127.8 80.1 130.4 81.3C130.5 81.4 130.7 81.4 130.9 81.4C130.6 81.1 130.4 80.9 130.1 80.7C128.5 79.9 126.9 78.9 125.3 77.9Z" fill="#FF9900"/>
<path d="M132.6 74.4C130.5 73.6 128.4 72.9 126.3 72L124.3 71.3C124.1 71.8 124 72.2 123.8 72.6L125 73C126.8 73.5 128.7 74.1 130.7 74.5C131.6 74.8 132.4 74.9 133.4 75C133.7 75.1 134 75.1 134.3 75.2C134.2 75.1 134.1 75.1 134 75C133.3 74.8 132.9 74.5 132.6 74.4Z" fill="#FF9900"/>
<path d="M103.6 90.7999C104.2 92.3999 104.9 94.1999 105.5 95.7999C106.1 97.2999 106.7 98.9999 107.3 100.5C107.4 100.8 107.6 101 107.7 101.3L104.8 90.3999C104.5 90.4999 104 90.6999 103.6 90.7999Z" fill="#FF9900"/>
<path d="M69.3 51.2C68.5 50.9 67.7 50.7 66.8 50.5C67.3 51 67.7 51.4 68.1 51.8L68.9 52C69 51.7 69.1 51.4 69.3 51.2Z" fill="#FF9900"/>
<path d="M94.8999 76.6C94.5999 76.7 94.3999 76.8 94.1999 76.9C93.1999 76.9 92.5999 77.2 91.8999 77.6C91.3999 77.8 90.8999 78 90.3999 78.1C90.8999 78.9 91.3999 79.7 91.6999 80.6C92.2999 79.1 93.7999 78.2 95.8999 77.5C96.1999 77.4 95.2999 76.5 94.8999 76.6Z" fill="#FF9900"/>
<path d="M70.8001 48.1999C69.9001 47.7999 69.1 47.4999 68.1 47.1999C66.6 46.6999 65.2001 46.0999 63.7001 45.6999C63.3001 45.5999 63 45.4999 62.5 45.3999C62.4 45.3999 62.4 45.3999 62.3 45.3999C64.8 47.0999 67.6 48.4999 70.1 49.4999C70.3 48.9999 70.5001 48.4999 70.8001 48.1999Z" fill="#FF9900"/>
<path d="M94.7 91.6001C94.6 92.2001 94.4 92.9001 94.2 93.5001C94.2 94.3001 94.2 95.0001 94.3 95.9001C94.3 96.2001 94.4 96.5001 94.5 96.9001C94.5 99.9001 94.5 102.7 94.6 105.7C94.6 106.2 94.7 106.6 94.9 107C94.9 107.2 95 107.3 95 107.5C95.1 107.2 95.1 107 95.2 106.8C95.4 106.2 95.6 105.6 95.6 105C95.8 101.5 96 98.0001 96.1 94.5001L96.2 91.9001C96 91.9001 95.8 91.9001 95.7 91.9001C95.4 91.6001 95 91.6001 94.7 91.6001Z" fill="#FF9900"/>
<path d="M67.1001 44.2L67.4001 44.4C68.7001 45.4 70.1001 46.1999 71.4001 47.0999C71.6001 46.7999 71.8001 46.5999 71.9001 46.2999C70.9001 45.7999 69.9001 45.2999 68.7001 44.7999C68.2001 44.5999 67.7001 44.3 67.2001 44.2C67.1001 44.3 67.1001 44.3 67.1001 44.2Z" fill="#FF9900"/>
<path d="M108.4 83.6999C109.4 82.5999 110 81.2999 110.4 79.9999C110.5 79.6999 109.6 79.0999 109.3 79.1999C108 79.6999 105.6 79.4999 104.3 79.1999C103 78.8999 99.2 77.6999 98.4 76.2999C97.4 74.2999 97.9 75.0999 99.4 75.1999C101 75.2999 103 76.7999 104.6 77.2999C106.8 77.8999 109.3 77.8999 111.5 77.7999C113.4 77.6999 115.1 77.1999 116.3 76.3999C114.5 79.3999 111.7 81.8999 108.4 83.6999ZM116.1 51.2999C114.1 51.1999 112.1 51.7999 111.3 53.7999C109.9 57.4999 112.6 60.7999 110.3 64.7999C107.9 68.9999 105.3 69.7999 100.6 70.0999C100.6 70.0999 100.6 70.0999 100.7 70.0999C104.7 67.0999 106.1 58.8999 107.2 54.4999C108.1 51.0999 110.3 44.7999 108.6 40.9999C113 43.5999 116.6 47.4999 118.7 52.1999C118 51.3999 117.2 51.2999 116.1 51.2999ZM93.6 49.8999C94.4 53.8999 94.5 58.7999 94.1 62.7999C94 64.0999 93.6 67.3999 92.4 68.2999C90.1 69.6999 89.7 66.4999 89.3 64.6999C88.1 60.1999 87.6 55.8999 87.7 51.1999C87.8 48.6999 89.1 45.2999 87.9 42.9999C87.3 41.8999 85.7 40.8999 84.2 40.4999C86.8 39.0999 89.5 38.0999 92.5 37.6999C90 40.5999 93 46.7999 93.6 49.8999ZM122.5 61.0999C121.9 46.5999 109.5 35.4999 95 35.9999C89.9 36.1999 85.1 37.8999 81.2 40.4999C79.7 41.0999 78.2 42.7999 77 43.9999C74.3 46.8999 72.2 50.3999 71 54.2999C71.4 54.7999 71.8 55.0999 72.2 55.4999C72.4 54.7999 72.7 54.0999 72.9 53.3999C72.9 53.6999 72.9 53.8999 73 54.0999C73.2 55.2999 73.5 56.3999 74 57.3999C74.9 58.3999 75.7 59.2999 76.6 60.2999C76.6 60.2999 76.7 60.2999 76.7 60.1999C74.8 57.4999 73.5 54.6999 74 51.7999C74.1 51.1999 74.3 50.5999 74.5 49.9999C76.1 47.2999 78.2 44.7999 80.5 42.7999C81.9 41.8999 84.2 40.9999 85.7 41.5999C88.1 42.4999 87 46.8999 86.9 48.4999C86.6 51.3999 86.3 71.5999 92.7 69.9999C97.3 68.8999 95.6 55.5999 95.4 53.0999C95 49.5999 92.9 45.6999 92.8 42.3999C92.7 39.5999 93.3 38.0999 95.5 37.2999C99.2 37.1999 102.5 37.7999 105.6 38.9999C108.8 41.7999 108.1 45.4999 107.2 49.3999C106.6 52.5999 105.7 55.6999 104.7 58.8999C104 61.2999 103.2 63.3999 102 65.5999C100.5 68.3999 99.2 68.9999 96.6 70.0999C96.2 70.2999 97.3 70.9999 97.6 70.9999C104.2 70.2999 107.7 71.3999 111.5 65.3999C113.1 62.8999 113 61.1999 112.7 58.2999C112.5 56.7999 111.9 54.6999 113.1 53.1999C114.7 51.2999 118.2 51.7999 119.8 53.6999C120.5 55.5999 121 57.4999 121.1 59.5999C121.1 59.7999 121.1 60.0999 121.2 60.1999C121.2 60.3999 121.2 60.4999 121.2 60.6999C121.2 61.0999 121.2 61.2999 121.2 61.6999C121.3 65.6999 120.4 69.4999 118.7 72.8999C117.6 74.3999 116.2 75.6999 114.4 76.3999C109 78.3999 104.8 75.2999 99.8 74.2999C98.4 73.9999 97.1 73.4999 96.1 74.8999C96 75.0999 96.3 75.3999 96.4 75.3999C98.5 77.0999 101.3 79.2999 104.2 79.8999C105.3 80.1999 106.5 80.0999 107.7 80.0999C108.2 80.0999 108.9 80.0999 109.3 80.0999C108.1 82.7999 106.1 84.6999 103.5 85.7999C101.5 86.3999 99.4 86.7999 97.3 86.8999C96.6 86.8999 95.8 86.8999 95.1 86.8999C94.9 86.7999 94.7 86.7999 94.5 86.6999C94.5 87.1999 94.6 87.7999 94.7 88.1999C95.6 88.2999 96.4 88.2999 97.4 88.1999C97.6 88.1999 97.9 88.1999 98 88.1999C99.3 88.1999 100.6 87.9999 101.8 87.6999C113.9 85.1999 123 73.9999 122.5 61.0999Z" fill="#FF9900"/>
<path d="M97.6001 91.6001C97.6001 92.3001 97.7001 92.9001 97.8001 93.6001C97.9001 94.6001 98.1001 95.5001 98.3001 96.4001C98.4001 96.8001 98.4001 97.0001 98.5001 97.4001C99.0001 95.5001 99.0001 93.4001 99.0001 91.6001C98.8001 91.6001 98.7001 91.6001 98.5001 91.6001C98.2001 91.6001 97.8001 91.6001 97.6001 91.6001Z" fill="#FF9900"/>
<path d="M123.3 81.4C123.5 81.5 123.7 81.5 123.8 81.6C123.7 81.4 123.5 81.3 123.4 81.1C123 80.6 122.7 80.3 122.3 80L120.5 78.7C120.3 79 120.1 79.2 119.9 79.6L121.7 80.7C122.3 81 122.9 81.2 123.3 81.4Z" fill="#FF9900"/>
<path d="M101.9 91.4C101.9 91.3 101.9 91.3 101.9 91.2C101.4 91.3 100.7 91.4 100.3 91.5L100.8 93.9C101.3 96.2 102 98.4 102.4 100.7C102.5 101 102.7 101.2 102.8 101.6V101.7C102.8 101.7 102.8 101.7 102.8 101.6C102.8 101.2 102.9 101 102.9 100.6C102.7 99.3 102.6 98 102.4 96.7C102.3 94.9 102.1 93.2 101.9 91.4Z" fill="#FF9900"/>
<path d="M50.2001 36.6C49.7001 35.2 49.1001 33.6 49.0001 32.1C48.8001 30.6 49.4001 28.8 48.1001 27.6C48.4001 27.5 44.3001 24.8 42.0001 25.3C39.6001 25.8 38.7001 27.1 36.4001 29C32.3001 32.5 28.3001 36 24.9001 39.8C19.3001 45.8 13.6001 51.2 9.5001 58.3C6.6001 63.3 2.8001 68.4 1.6001 74C0.300098 80.5 -0.299902 87.7 2.2001 94.1C4.4001 99.6 9.8001 102.8 15.5001 105.1C22.2001 107.7 28.8001 109.9 35.3001 105.8C39.8001 102.9 43.3001 98.2 44.5001 93.3C44.5001 93.2 44.5001 93.1 44.6001 93.1C44.1001 92.6 43.7001 92 43.3001 91.5C43.2001 91.7 43.2001 91.8 43.1001 92C40.0001 101.1 31.7001 110.1 18.1001 104.4C9.4001 100.6 2.7001 97.5 2.5001 83.5C2.3001 74.1 6.4001 65.7 11.8001 58C10.8001 60.5 10.3001 63.2 9.9001 65.7C9.4001 68.2 8.6001 70.6 7.7001 73.1C6.8001 75.5 6.0001 78 6.0001 80.6C6.1001 83 7.2001 84.8 8.7001 86.7C9.8001 87.9 10.4001 88.9 10.8001 90.3C11.1001 91.4 11.3001 92.6 12.0001 93.7C13.1001 95.3 14.7001 96.7 16.8001 97.1C17.8001 97.3 18.8001 97.2 19.8001 97C21.8001 96.6 23.4001 96.2 25.4001 97C27.6001 97.9 29.7001 98.1 31.9001 97.2C34.4001 96.1 35.8001 93.7 37.7001 91.7C38.9001 90.5 40.3001 89.4 41.4001 88.2C41.1001 87.8 40.9001 87.4 40.7001 87.1C40.4001 87.5 40.2001 87.8 39.8001 88.2C39.0001 89 38.1001 89.7 37.2001 90.5C36.3001 91.4 35.5001 92.4 34.6001 93.4C32.9001 95.3 30.9001 97.2 27.7001 96.6C26.6001 96.3 25.7001 95.8 24.6001 95.5C23.4001 95.2 22.2001 95.3 21.0001 95.6C18.6001 96.1 16.3001 96.3 14.5001 94.5C13.5001 93.6 12.9001 92.6 12.7001 91.3C12.4001 90.3 12.3001 89.4 11.9001 88.4C10.9001 86.3 8.7001 84.9 8.0001 82.8C7.1001 80.2 8.0001 77.3 8.9001 74.9C9.2001 74.1 9.5001 73.4 9.8001 72.5C9.7001 72.4 11.4001 66.3 11.7001 65.6C12.3001 62 12.8001 58.2 14.6001 55.1C15.1001 54.4 15.7001 53.7 16.2001 53C16.0001 53.5 17.8001 50.9 19.0001 49.5C18.2001 50.8 17.8001 52.3 17.5001 53.8C17.2001 55.5 17.2001 57.3 16.7001 59.1C16.3001 60.1 15.8001 60.9 15.4001 61.9C14.9001 63 15.1001 64.2 14.9001 65.3C14.4001 67.2 12.8001 68.5 12.2001 70.3C11.8001 71.5 11.6001 72.8 11.5001 74.1C11.0001 77.1 9.9001 79.9 11.1001 83C12.7001 86.5 17.4001 90.3 21.8001 89.5C23.4001 89.1 24.4001 89.7 25.7001 90.3C26.5001 90.7 27.3001 91 28.4001 90.8C30.0001 90.6 30.9001 89.1 31.5001 87.8C32.5001 86 33.8001 85.4 35.7001 84.5C36.8001 84 37.5001 83.4 38.2001 82.5C38.2001 82.5 38.2001 82.4 38.1001 82.4C37.9001 82 37.7001 81.7 37.6001 81.3C37.2001 81.8 36.7001 82.4 36.3001 82.7C35.1001 83.7 33.4001 83.9 32.1001 84.9C31.4001 85.4 30.9001 86 30.5001 86.7C30.3001 87.1 30.2001 87.4 30.0001 87.8C29.7001 88.3 29.4001 88.8 28.9001 89.2L28.8001 89.3C27.8001 89.8 26.8001 89.3 25.9001 88.8C25.1001 88.4 24.4001 88 23.5001 87.9C22.3001 87.8 21.3001 88.3 20.1001 88.3C18.9001 88.2 17.8001 87.8 16.7001 87.2C17.0001 87.2 13.3001 85.4 12.4001 81.9C11.7001 79.6 12.0001 77.3 12.2001 74.9C12.3001 73.8 12.5001 72.8 12.9001 71.9C13.1001 70.4 14.7001 67.4 14.6001 67.4C14.9001 66.9 15.2001 66.5 15.4001 66.1C15.9001 64.7 15.6001 63.1 16.3001 61.6C17.0001 60.2 17.6001 59 17.8001 57.4C18.3001 54 18.7001 51.1 20.7001 48.3C22.6001 45.6 25.3001 43.4 28.0001 41.4C28.8001 40.8 29.6001 40.3 30.4001 39.7C30.5001 39.3 30.6001 39 30.7001 38.6C29.3001 39.7 27.8001 40.7 26.4001 41.9C24.8001 43.1 23.1001 44.4 21.7001 45.9C23.9001 43.2 26.3001 40.6 28.8001 38.2C31.1001 36.1 33.5001 34.2 35.7001 32.2C37.5001 30.7 39.4001 28.7 41.8001 27.7C42.0001 27.6 42.3001 27.5 42.4001 27.5C41.5001 28.6 40.4001 29.6 39.2001 30.6C37.6001 31.8 36.2001 33.1 34.8001 34.5C34.6001 34.7 34.4001 34.9 34.3001 35C34.8001 34.8 35.4001 34.6 35.8001 34.5C36.0001 34.3 36.2001 34.1 36.3001 34C38.1001 32.3 40.7001 30.6 42.3001 28.5C45.0001 30.7 43.9001 34.8 43.1001 37.8C43.4001 37.9 43.6001 38 43.8001 38.1C44.7001 34.8 45.9001 30.4 43.0001 28C42.8001 27.9 42.7001 27.9 42.7001 27.9C42.8001 27.8 42.8001 27.6 42.9001 27.5C43.1001 27.5 43.4001 27.4 43.5001 27.4C46.5001 29.5 45.1001 33.6 44.7001 36.4C44.6001 37 44.5001 37.7 44.5001 38.3C45.0001 38.5 45.3001 38.6 45.7001 38.8C45.9001 38.9 46.0001 38.9 46.2001 39C46.2001 38.5 46.2001 37.9 46.3001 37.4C46.5001 36 46.9001 34.7 47.0001 33.3C47.1001 32.4 46.5001 29.4 45.4001 27.8C45.9001 27.7 46.2001 27.8 46.4001 28C47.5001 28.7 47.4001 30.5 47.6001 31.5C48.2001 34.5 49.3001 37.2 50.4001 40.1C50.4001 40.2 50.4001 40.2 50.5001 40.3C51.1001 40.6 51.7001 40.8 52.3001 41.1C51.3001 39.5 50.7001 38 50.2001 36.6Z" fill="#FF9900"/>
</g>
<defs>
<clipPath id="clip0_80_57">
<rect width="141" height="130" fill="white" transform="translate(0.5)"/>
</clipPath>
</defs>
</svg>
