<svg width="142" height="130" viewBox="0 0 142 130" fill="none" xmlns="http://www.w3.org/2000/svg">
<path d="M120.8 90.1001L119.3 88.4001C120.4 87.5001 122.4 84.9001 123.8 83.0001L124.6 81.9001C133.1 71.3001 135.6 57.8001 131 47.3001C130.4 45.9001 129.9 44.6001 129.6 43.2001C129.3 41.7001 129.3 40.5001 129.4 39.2001C129.4 38.4001 129.6 37.7001 129.4 37.1001H129.2C129.2 37.1001 129 37.1001 128.9 37.1001C128.9 37.1001 128.7 37.1001 128.6 37.1001C128.5 37.1001 128.3 37.1001 128.3 37.1001L127.9 36.0001L128.1 37.1001C127.7 37.3001 127.2 37.3001 126.7 37.4001C125.5 37.8001 124 38.0001 122.4 38.2001C121 38.2001 119.5 38.2001 117.8 37.8001C105.8 35.3001 93.6 40.5001 85.6 52.0001L83.5 50.4001C92.2 38.2001 105.2 32.7001 118 35.3001C119.5 35.6001 120.7 35.7001 122 35.6001C123.4 35.6001 124.7 35.3001 125.7 35.0001C126.3 34.8001 126.8 34.7001 127.4 34.6001C127.4 34.6001 127.6 34.6001 127.7 34.6001C127.9 34.6001 128 34.6001 128.1 34.6001C128.3 34.6001 128.4 34.6001 128.5 34.6001H128.7C128.7 34.6001 128.9 34.6001 129 34.6001C129 34.6001 129.2 34.6001 129.3 34.6001C129.5 34.6001 129.6 34.6001 129.7 34.6001C129.8 34.6001 130 34.6001 130 34.8001C130.2 34.8001 130.2 35.0001 130.3 35.0001C130.3 35.0001 130.5 35.0001 130.5 35.2001H130.7C131 35.4001 131.1 35.6001 131.3 36.0001C131.5 37.1001 131.5 38.3001 131.5 39.3001C131.3 40.2001 131.5 41.3001 131.7 42.6001C131.9 43.7001 132.3 44.9001 132.8 46.1001C137.9 57.3001 135.3 71.7001 126.2 83.0001L125.4 84.1001C124.1 86.4001 122 89.0001 120.8 90.1001Z" fill="#FF9900"/>
<path d="M8.89996 46.0999C10.8 47.1999 12.8 47.5999 14.9 47.2999C16.3 47.2999 17.6 46.9999 18.9 46.3999C19.3 46.1999 19.8 45.7999 20.1 45.4999C19.5 44.5999 18.6 43.9999 17.6 43.3999C16.4 42.7999 15.1 42.4999 13.7 42.4999C12.3 42.7999 11 43.3999 9.99996 44.4999C9.79996 44.9999 9.29996 45.4999 8.89996 46.0999ZM7.79996 48.0999C5.69996 53.5999 6.99996 62.2999 9.29996 68.2999C14.7 82.4999 36.4 99.2999 46.2 103C48.2 103.8 48.9 103.6 48.9 103.6C48.9 103.6 48.9 103.2 48.3 101.9C47.7 100.7 46.2 98.5999 44.4 96.0999C41.5 91.7999 37.3 85.9999 34.7 80.3999C33.2 76.6999 32 72.8999 31 68.8999C28.9 61.3999 26.7 53.5999 21.5 47.3999C21.1 47.7999 20.4 48.2999 20 48.5999C18.5 49.3999 16.7 49.6999 15 49.6999C12.6 49.7999 9.99996 49.3999 7.79996 48.0999ZM48.7 105.9C48.5 105.9 48.3 105.9 48.1 105.9C40.6 105 13.5 85.8999 7.19996 68.9999C5.19996 63.5999 2.69996 52.6999 6.39996 45.7999L6.59996 45.5999C7.19996 44.6999 7.79996 43.7999 8.69996 42.8999C9.79996 41.6999 11.4 40.7999 12.9 40.2999C13.3 38.2999 14 36.5999 14.6 35.0999C15.7 32.1999 16.3 30.4999 15.2 28.6999C14.4 27.8999 13.8 27.1999 12.9 26.6999C12.6 26.6999 12.3 26.4999 12 26.3999C9.79996 26.0999 7.69996 26.5999 5.79996 27.4999L4.69996 25.4999C6.99996 24.2999 9.69996 23.7999 12.3 23.9999C12.4 23.9999 12.4 23.9999 12.6 23.9999C13.1 24.1999 13.5 24.2999 14 24.3999C15.4 25.1999 16.3 26.0999 17.1 27.2999C19 30.1999 17.9 32.7999 16.8 35.7999C16.2 37.1999 15.6 38.4999 15.3 40.2999C16.5 40.4999 17.8 40.6999 18.8 41.3999C20.3 42.1999 21.5 43.3999 22.5 44.8999C22.5 44.8999 22.5 44.8999 22.5 45.0999C28.7 51.8999 31 60.2999 33.2 68.3999C34.3 72.3999 35.3 76.0999 36.7 79.5999C39.4 84.9999 43.1 90.4999 46.2 94.7999C48.1 97.3999 49.5 99.3999 50.2 101C50.5 101.6 51.6 103.7 50.6 105C50.5 105.5 49.9 105.9 48.7 105.9Z" fill="#FF9900"/>
<path d="M68.5999 105.9C65.0999 105.9 61.3 105.5 57.4 104.4C53.9 103.5 49.3 101.5 47.9 101.1L48.7999 99C50 99.6 54.4 101.5 57.7 102.3C71.2 105.6 82.2 102.9 90.5 94.2C92.5 92.1 94.2 89 95.5 85.6C98.6 76.7 98 66.6 93.8 60.2C89.8 53.9 81.1 50.5 68.3 49.9C65.6 49.7 63.0999 48.7 60.5999 47.6C57.8999 46.4 55.4 45.3 52.9 45.9C43.5 48.2 36.2 56.2 33.4 67.4C33.4 67.6 33.2 67.8 33.2 68.3C33.2 68.6 33 68.9 33 69.1L30.7 68.7C30.7 68.5 30.7 68.4 30.9 68.1C30.9 67.7 31.1 67.2 31.1 67C34.2 55 42.0999 46.4 52.2999 43.8C55.5999 43 58.6999 44.2 61.5999 45.6C63.6999 46.5 66.1 47.6 68.4 47.7C82 48.3 91.2 52.2 95.8 59.1C100.3 65.9 101 76.9 97.7 86.5C96.5 90.4 94.3999 93.5 92.0999 96C86 102.4 78.0999 105.9 68.5999 105.9Z" fill="#FF9900"/>
<path d="M47.9 37.3999C47.3 37.3999 46.5 37.3999 45.9 37.5999C35.8 39.2999 51.9 35.5999 61.7 49.5999C62.3 50.3999 62.3 50.6999 62 50.6999C61.1 50.6999 57.5 48.8999 53.3 48.8999C51.9 48.8999 50.6 49.0999 49.1 49.6999C43.5 51.7999 41.8 58.1999 42.7 59.9999C42.7 60.1999 42.9 60.2999 43 60.2999C43.9 60.2999 45.5 52.7999 52.1 52.7999C52.3 52.7999 52.4 52.7999 52.5 52.7999C52.5 52.7999 62.9 54.4999 65.5 55.6999C66.9 56.2999 76 61.4999 69.4 73.9999C69.1 74.3999 69.2 74.5999 69.4 74.5999C70.6 74.5999 80.6 64.8999 75.4 59.0999C74.5 58.1999 75.7 56.7999 75.7 56.7999C75.7 56.7999 83.4 57.8999 86.7 60.7999C88.6 62.4999 91.2 66.9999 91.2 69.3999C91.2 69.5999 91.2 69.6999 91.2 69.6999C91.5 69.6999 92.9 58.7999 80.8 53.1999C74.8 50.4999 77.9 49.1999 82.5 49.1999C86.4 49.1999 91.6 50.0999 93.8 51.4999C94.4 51.8999 94.7 52.0999 94.7 52.0999C95 52.0999 86.5 46.0999 79.1 46.0999C77.4 46.0999 75.8 46.3999 74.3 47.1999C71.6 48.5999 69.8 48.9999 68.5 48.9999C66.5 48.9999 65.8 47.8999 65.1 47.2999C65.3 47.1999 57.2 37.3999 47.9 37.3999ZM75.6 48.9999C75.4 49.1999 75.4 49.3999 75.3 49.7999C74.7 52.6999 78.4 54.3999 79.9 55.1999C80.1 55.3999 80.2 55.3999 80.5 55.4999C78.4 54.8999 76.5 54.5999 76.2 54.5999C76 54.5999 76 54.5999 75.9 54.5999C75.3 54.5999 74.7 54.8999 74.2 55.3999C73 56.7999 72.3 59.0999 73.9 60.7999C74.3 61.3999 75 62.2999 74.7 64.0999C74.7 64.4999 74.5 64.8999 74.4 65.2999C74.4 64.0999 74.1 62.7999 73.8 61.5999C72.1 56.3999 67.8 54.0999 67 53.5999C66.4 53.2999 65.1 52.9999 63.9 52.4999C64.2 52.2999 64.3 52.0999 64.5 51.6999C64.9 50.7999 64.8 49.9999 64.5 49.3999C65.3 50.1999 66.6 51.1999 69 51.1999C70.6 51.1999 72.8 50.3999 75.6 48.9999Z" fill="#FF9900"/>
<path d="M70 53.2C65.4 52.6 68.1 48.6 68.6 46.9C69.2 44.6 69 42 69.2 39.7C69.8 40.5 71.9 40.7999 72.9 40.5999C72.9 42.8999 72.7 45.4999 72.6 47.7999C72.7 49.1999 73 53.5 70 53.2Z" fill="#FF9900"/>
<path d="M97.3999 79.8C97.3999 79.8 97.0999 78.3 97.9999 77.8C98.8999 77.2 97.1999 77.2 97.1999 77.2C97.1999 77.2 97.4999 78.4 96.9999 79.5C96.5999 80.3 97.3999 79.8 97.3999 79.8Z" fill="#FF9900"/>
<path d="M102.1 82C102.1 82 102.7 86.8 102.3 88.6C101.9 90.4 102.6 88.6 102.6 88.6C102.6 88.6 103 86.5 102.9 82.3L102.1 82Z" fill="#FF9900"/>
<path d="M101.6 89.6001C100.5 89.6001 99.7 90.0001 99.3 90.5001C97.8 91.7001 96.8 93.8001 96.8 96.2001C96.6 98.8001 97.7 101.3 99.1 102.5C99.9 103.1 100.8 103.4 101.8 103.1C104.5 102.5 107.4 100.5 107.6 96.5001C107.8 92.8001 104.9 89.9001 102.4 89.5001C101.9 89.6001 101.7 89.6001 101.6 89.6001ZM100.9 105.3C99.8 105.3 98.8 104.9 97.8 104.1C95.9 102.6 94.7 99.5001 94.9 96.3001C95.1 93.6001 96.1 90.8001 98.2 89.3001C99.4 88.2001 100.9 87.8001 102.5 87.9001C105.9 88.3001 109.5 92.0001 109.3 96.8001C109.1 101.1 106.4 104.3 102 105.3C101.6 105.1 101.3 105.3 100.9 105.3Z" fill="#FF9900"/>
<path d="M99.9 75C99.9 75 97 74.8 96.4 73.9C95.8 73.1 97.3 75.4 97.3 75.4C97.3 75.4 98.5 75 99.5 75.3C100.5 75.8 99.9 75 99.9 75Z" fill="#FF9900"/>
<path d="M100.3 80.7C100.3 80.7 104.9 79.5 106.8 79.6C108.7 79.8 106.8 79.3 106.8 79.3C106.8 79.3 104.7 79.3 100.4 79.9L100.3 80.7Z" fill="#FF9900"/>
<path d="M109.2 90.8C104.2 85.1 94.7 73.9 94.7 73.4C94.7 72.8 95.8 72.2 95.8 72.2C95.8 72.2 104 85.1 110.1 89.9C109.6 90.2 109.4 90.6 109.2 90.8Z" fill="#FF9900"/>
<path d="M110.2 91.2999C108.3 94.1999 110 98.6999 113.9 101.2C117.9 103.7 122.6 103.3 124.4 100.4C125.3 98.9999 125.5 97.0999 124.7 95.4999C124.1 93.6999 122.6 91.7999 120.7 90.5999C118.7 89.3999 116.5 88.7999 114.5 88.8999C112.7 89.1999 111.2 89.9999 110.2 91.2999ZM119.6 104.7C117.5 104.7 115.3 104.1 113.2 102.7C108.4 99.5999 106.4 94.0999 108.9 90.2999C110.1 88.4999 112.2 87.1999 114.7 86.9999C117.2 86.7999 119.8 87.3999 122.1 88.7999C124.4 90.1999 126.1 92.2999 126.9 94.5999C127.8 96.8999 127.5 99.3999 126.5 101.2C124.8 103.6 122.3 104.7 119.6 104.7Z" fill="#FF9900"/>
<path d="M106.7 82.8C106.9 83.9 108.6 86.8 113.8 86.5C117.3 86.3 119 83.8 119 81.1C119 78.5 116.3 76.3 112.6 76.3C111.1 76.3 109.5 77.1 108.3 78.4C107.1 79.9 106.5 81.6 106.7 82.8ZM113.2 88.4C107.8 88.4 105.1 85.1 104.9 83.2C104.6 81.4 105.3 79.2 106.9 77.5C108.4 75.7 110.8 74.6 112.7 74.8C117.2 74.8 120.9 77.9 120.9 81.4C120.9 84.7 118.6 88.4 113.8 88.6C113.7 88.4 113.5 88.4 113.2 88.4Z" fill="#FF9900"/>
</svg>
