<svg width="142" height="130" viewBox="0 0 142 130" fill="none" xmlns="http://www.w3.org/2000/svg">
<path d="M76.5 26.9V1.7C76.5 1 75.9 0.2 75.2 0H65.5C64.6 0 63.8 0.8 63.8 1.7V26.9C58.4 30.1 51.3 34.6 51.3 45.9V73.1H53.5V46C53.5 35.6 60.1001 31.7 65.3001 28.5L66 28.1V2.2H74.2V28.1L74.9001 28.5C80.1001 31.6 86.7 35.5 86.7 45.9V68.8H88.9001V46C89 34.6 81.9 30.1 76.5 26.9Z" fill="#FF9900"/>
<path d="M83.3 124.6H91.0999C90.4999 123.9 90.1999 123.1 90.1999 122.3V102.6L91 102.1C95.2999 99.5 100.7 96.3 100.7 88V74.9H75.5C74.6 74.9 73.8 75.6 73.8 76.6V87.9C73.8 96.3 79.1 99.5 83.5 102.1L84.1999 102.5V122.2C84.0999 123.1 83.8 124 83.3 124.6ZM100.8 126.9H62.2L78.5999 124.7L81.0999 123.6C81.5999 123.4 81.9 122.9 81.9 122.4V103.9C77.4 101.2 71.5999 97.4 71.5999 88V76.6C71.5999 74.4 73.3 72.7 75.5 72.7H103V87.9C103 97.3 97 101.1 92.5 103.8V122.3C92.5 122.8 92.8 123.3 93.3 123.5L100.8 126.9Z" fill="#FF9900"/>
<path d="M87.4 65.5C87.4 65.4 87.5 65.2 87.2 65.2C87 65.2 87 65.4 87 65.5C87 65.8 86.9 66 86.7 66C86.3 66 86 66.3 85.7 66.5C85.6 66.6 85.3 66.7 85.5 66.9C85.6 67.1 85.8 66.9 86 66.8C86.1 66.7 86.2 66.6 86.3 66.5C86.7 66.2 87.2 65.9 87.6 65.7V65.6C87.5 65.6 87.4 65.7 87.4 65.5Z" fill="#FF9900"/>
<path d="M79.9 59.6C80.1 60 80.6 60.3 80.9 60.8C81 60.6 80.9 60.5 80.9 60.4C80.7 60.1 80.4999 59.7 80.1999 59.4C80.0999 59.2 80.0999 59.1 80.1999 58.9C80.2999 59 80.4 59.2 80.4 59.3C80.6 59.5 80.8 59.5 81.1 59.3C81.3 59.1 81.2 58.9 81 58.7C80.8 58.5 80.7999 58.5 80.6999 58.4C80.4999 58.2 80.5 58 80.6 57.9C80.6 57.8 80.7 57.7 80.8 57.7C80.9 57.7 81 57.8 81 57.9V58C81 58.1 81.0999 58.2 81.1999 58.2C81.2999 58.2 81.3 58.1 81.3 58C81.2 57.8 81.4 57.8 81.5 57.7C81.7 57.6 81.7 57.6 81.9 57.5C82.4 57.3 82.4 56.7 82.1 56.3C81.9 56.2 81.9 56 81.8 55.8C81.5 55.6 81.5 55 81.5 55C81.7 54.9 81.8 55 81.9 55.2C82.1 55.4 82.3 55.5 82.6 55.7C82.8 55.8 82.8 55.9 82.9 55.7C82.9 55.6 82.8 55.6 82.8 55.5C82.7 55.4 82.6 55.3 82.5 55.2C82.3 55.1 82.4 54.9 82.4 54.7C82.4 54.5 82.6 54.6 82.6 54.6C82.9 54.6 83 54.3 82.9 53.9C82.9 53.8 82.8 53.8 82.8 53.7C82.7 53.6 82.8 53.6 82.8 53.5H82.9C83 53.5 83.1 53.8 83.1 53.7C83.1 53.6 82.9 53.5 82.9 53.4C82.8 53.3 82.7 53.2 82.6 53.2C82.4 53.2 82.3 53.1 82.1 53.1C82 53.1 81.9 53 81.9 52.9C81.8 52.7 82 52.6 82.1 52.5C82.2 52.4 82.2 52.5 82.3 52.5C82.6 52.6 83 52.7 83.3 52.4C83.4 52.3 83.5 52.2 83.6 52.2C83.7 52.2 83.7 52 83.8 52.1C83.9 52.2 83.8 52.3 83.8 52.4C83.7 52.6 83.6 52.8 83.8 52.9C84 53.1 84.1 53.2 84.3 53.4C84.4 53.5 84.5 53.5 84.5 53.4C84.5 53.4 84.5 53.4 84.5 53.3C84.5 53.1 84.4 53 84.3 52.8C84.2 52.7 84.1 52.6 84.1 52.4C84.2 52.4 84.3 52.4 84.3 52.4C84.5 52.4 84.7 52.2 85 52C85 51.9 84.9 51.9 84.8 51.8V51.7C85 51.7 84.9999 51.7 85.1999 51.7C85.2999 51.7 85.4 51.8 85.5 51.6C85.1 51.4 84.6999 51.1 84.1999 51.1C83.4 51.1 82.7 51 81.9 51C81.6 51 81.2 50.9 80.9 50.8C80.6 50.7 79.9999 50.5 79.6999 51C79.5999 51.1 79.5 51.1 79.5 51C79.3 50.3 78.9999 50.3 78.6999 50.3C78.2999 50.3 77.8 50.3 77.4 50C77.3 50 77.2 50 77.1 50C76.4 50 75.9 50.1 75.3 50.4C75.1 50.5 75.1 50.6 75.1 50.8C75.1 50.9 75.2 51 75 51.1C74.7 51.3 74.8 50.9 74.8 50.8C74.8 50.5 74.6 50.3 74.4 50.4C74.2 50.4 74.2 50.7 74.3 50.9C74.3 50.9 74.3 50.9 74.3 51H74.1999C73.6999 51 73.0999 50.8 72.6999 51.2H72.6C72.5 50.9 72.4 51.1 72.4 51.2C72.2 51.6 71.7 51.7 71.3 51.4C71.5 51.4 71.5999 51.4 71.6999 51.4C71.8999 51.4 71.9 51.4 72 51.2C71.2 50.6 70.1 50.6 69.6 51C69.4 51.2 69.3 51.2 69.3 51.2C69.2 51.5 69.1 51.6 68.8 51.7C68.6 51.8 68.5 52 68.6 52.1C68.8 52.2 68.8 52.8 69.3 52.4C69.2 52.5 69.4999 52.9 69.1999 52.8C68.9999 52.8 68.7 52.8 68.5 53C68.4 53.1 68.4 53.1 68.3 53.2C68.3 53 68.2 52.9 68.1 52.8H67.9C67.8 52.7 67.6999 52.5 67.6999 52.4C67.6999 52.3 67.7 52.2 67.5 52.2C67.3 52.2 67.3 52.3 67.3 52.4C67.3 52.6 67.2 52.6 67.1 52.6C66.9 52.6 66.9 52.8 66.9 53C66.9 53.1 66.9 53.1 67 53.2C67.2 53.3 67.2 53.1 67.3 53.1C67.4 53.1 67.4 53 67.5 53C67.4 53.4 67.6 53.4 67.8 53.3C67.9 53.3 68 53.2 68.1 53.3C68 53.5 67.9 53.4 67.8 53.4C67.7 53.6 67.5999 53.8 67.6999 54C67.6999 54.1 67.9 54.1 67.8 54.2C67.7 54.3 67.6 54.2 67.6 54.2C67.1 54.1 66.8 54.3 66.9 54.9C66.9 55.1 67 55.2 67.1 55.2C67.4 55.2 67.8 55.3 68 54.8C68 54.7 68.1999 54.6 68.1999 54.4C68.3999 54.2 68.7 54.4 68.9 54.1C69.1 54.4 69.3 54.5 69.6 54.7C69.7 54.8 69.7 54.8 69.6 54.9C69.5 54.9 69.4 54.9 69.4 55C69.5 55.2 69.5999 55.2 69.6999 55.2C69.8999 55.1 69.8 54.9 69.9 54.8C70 54.7 69.7999 54.6 69.6999 54.6C69.5999 54.6 69.6 54.5 69.5 54.5C69.3 54.4 69.3 54.3 69.3 54C69.5 54 69.8 54.1 70 54.3C70.1 54.4 70.1 54.5 70.1 54.5C70.1 54.8 70.3 54.9 70.4 55.1C70.6 54.6 70.5999 54.6 70.6999 54.5C70.7999 55.1 70.9 55.2 71.4 55.2H71.5C71.7 55.2 71.8 55.3 71.8 55.5C71.8 55.8 71.7 56 71.5 56C71.2 56 70.8 56.1 70.6 55.8C70.4 55.6 70.2 55.7 70.1 56C70 56.1 69.9 56.1 69.9 56C70 56 69.7 56 69.4 56C69.2 56 69.1999 55.9 69.1999 55.7C69.2999 55.3 69.1 55.3 68.9 55.3C68.4 55.3 67.9 55.6 67.4 55.6C67.2 55.6 66.9 55.7 66.9 56.1C66.9 56.4 66.8 56.6 66.6 56.7C66.4 56.8 66.3 57 66.1 57.1C65.9 57.3 65.9 57.5 66.1 57.5C66.3 57.7 66.3 57.8 66.3 57.9C66.1 58.4 66.1 58.8 66.5 59.3C66.7 59.5 66.7 59.7 66.9 59.9C67 60 67 60.1 67.1 60C67.4 59.9 67.9 60.1 68.3 59.8C68.5 59.7 68.5999 59.7 68.6999 59.8C68.7999 59.9 68.9 60 69 60C69.2 60 69.2999 60.2 69.1999 60.4C69.0999 60.7 69.2 61 69.4 61.3C69.5 61.4 69.5 61.6 69.6 61.7C69.8 62 69.8 62.2 69.6 62.5C69.5 62.7 69.4 63 69.5 63.1C69.7 63.3 69.6999 63.5 69.6999 63.8C69.6999 64 69.7 64.1 69.9 64.3C70.1 64.5 70.1 64.7 70.1 65C70.1 65.1 70.0999 65.2 70.1999 65.3C70.2999 65.4 71.2 65.3 71.3 65.2C71.7 64.9 72 64.2 72.4 63.9V63.8C72.3 63.5 72.5999 63.3 72.6999 63.1C73.0999 62.6 72.9 62.1 72.8 61.4C72.7 61.3 72.7 61.2 72.9 61.2C73.6 60.7 73.9 59.9 74.3 59.3C74.3 59.2 74.4 59.2 74.4 59.1C74.3 59 74.1999 59 74.1999 59C73.9999 59 73.8 59.1 73.5 59.2C73.3 59.2 73.2 59.2 73.1 59C72.9 58.4 72.6 57.8 72.3 57.2C72.3 57.2 72.3 57.1 72.4 57.1C72.6 57.5 72.8999 57.8 73.1999 58.3C73.2999 58.4 73.3 58.5 73.3 58.6C73.4 59.1 73.6 59.3 74 59C74.4 58.7 74.7999 58.4 75.1999 58.1C75.3999 58 75.4 57.8 75.1 57.8C74.7 57.5 74.3 57.2 73.9 57C73.5 57 73.5 56.7 73.5 56.6C73.5 56.5 73.5 56.4 73.6 56.4C73.7 56.4 73.7 56.4 73.8 56.5C73.9 56.9 74.2 57.1 74.5 57.1C75 57.1 75.6 57.3 76.1 57.3C76.4 57.4 76.5 57.5 76.5 57.9C76.5 58.1 76.4 58.2 76.5 58.4C76.7 58.7 76.8 59.1 77 59.4C77.1 59.6 77.2 59.7 77.3 59.4V59.5C77.2 59.6 77.2 59.8 77.4 59.8C77.5 59.8 77.5999 59.8 77.6999 59.5C77.8999 59 77.6 59 77.5 59C77.6 58.7 77.5999 58.3 77.6999 58C77.7999 57.7 77.8999 57.3 78.1999 57.3C78.8999 57.2 79.6 57.9 79.6 58.7C79.8 59.2 79.7 59.5 79.9 59.6Z" fill="#FF9900"/>
<path d="M64.6 61.3999C64.5 61.3999 64.4 61.2999 64.4 61.1999C64.3 60.8999 64.2 60.8999 63.9 60.8999C63.8 60.8999 63.7 60.8999 63.7 60.8999C63.5 60.8999 63.3 60.7999 63 60.6999C62.8 60.5999 63 60.3999 62.9 60.2999C62.8 60.0999 62.8 59.7999 62.6 59.7999C62.3 59.7999 62.1 59.5999 61.9 59.2999C61.9 59.0999 61.8 58.9999 61.7 59.1999C61.5 59.2999 61.3 59.2999 61.2 59.0999C61 58.6999 60.5 58.6999 60.3 59.0999C60.1 59.4999 59.8 59.2999 59.5 59.2999C59.3 59.2999 59.4 58.9999 59.3 58.7999V58.6999C59.3 58.3999 59.2 58.2999 59.1 58.2999C59 58.2999 58.9 58.2999 58.9 58.1999C58.9 58.0999 59 57.9999 59 57.8999C59.1 57.7999 59.1 57.6999 59 57.5999C58.9 57.4999 58.8 57.5999 58.8 57.6999C58.7 57.7999 58.6 57.8999 58.5 57.9999C58.3 58.0999 58.2 58.0999 58.1 57.9999C57.9 57.8999 57.9 57.6999 57.9 57.4999C58 57.0999 58.1 56.7999 58.6 56.5999C58.9 56.3999 59.4 56.4999 59.8 56.4999C59.9 56.4999 59.9 56.5999 59.9 56.5999C59.9 56.8999 60.1 56.8999 60.2 56.9999C60.3 56.6999 60.1 56.4999 60.3 56.1999C60.6 55.8999 61 55.6999 61.2 55.1999C61.4 54.6999 62 54.5999 62.3 54.1999C62.4 54.0999 62.5 53.8999 62.6 54.0999C62.7 54.0999 62.7 54.0999 62.7 53.9999C62.8 53.8999 62.7 53.8999 62.6 53.8999C62.5 53.8999 62.4 53.7999 62.4 53.6999C62.5 53.5999 62.6 53.5999 62.7 53.6999C62.9 53.8999 63 53.8999 63.2 53.6999C63.3 53.5999 63.3 53.6999 63.4 53.6999C63.2 54.0999 63.2 54.0999 63.6 54.1999C63.7 54.1999 63.8 54.2999 63.8 54.0999C63.8 53.8999 63.7 53.8999 63.6 53.7999C63.5 53.6999 63.4 53.7999 63.4 53.5999C63.6 53.4999 63.8 53.1999 63.6 53.0999C63.3 52.8999 63.4 52.5999 63.3 52.2999C63.2 52.3999 63.1 52.3999 63.1 52.3999C62.9 52.4999 62.8 52.5999 62.8 52.1999C62.8 52.0999 62.8 52.0999 62.7 51.9999C62.5 51.9999 62.3 51.7999 62 51.8999C62 52.1999 62 52.3999 62 52.5999C62 52.6999 62 52.8999 61.8 52.9999C61.6 52.9999 61.5 53.0999 61.4 53.3999C61.4 53.4999 61.3 53.4999 61.2 53.4999C61.1 53.4999 61.1 53.3999 61.2 53.2999C61.2 53.0999 61.1 52.8999 61 52.8999C60.9 52.8999 60.8 52.8999 60.8 52.7999C60.6 52.6999 60.5 52.4999 60.6 52.3999C60.8 52.1999 61.1 51.9999 61.4 51.8999C61.5 51.8999 61.6 51.7999 61.6 51.9999C61.6 52.1999 61.8 52.0999 61.8 51.9999C62 51.7999 62.1 51.5999 62.3 51.3999C62.5 51.1999 62.7 51.1999 63 51.1999C63.1 51.1999 63.2 51.2999 63.2 51.3999C63.2 51.4999 63.1 51.4999 63 51.5999C62.9 51.6999 62.8 51.7999 62.6 51.8999C62.8 51.9999 63 51.9999 63.3 52.0999C63.4 52.0999 63.5 52.0999 63.5 51.9999C63.5 51.7999 63.7 51.7999 63.7 51.7999C63.9 51.7999 63.9 51.6999 63.9 51.5999C63.7 51.4999 63.7 51.1999 63.7 51.0999C63.3 50.7999 62.8 50.5999 62.3 50.7999C62.3 50.8999 62.2 50.9999 62.2 51.1999C62.2 51.2999 62.2 51.3999 62.1 51.3999C62.1 51.3999 61.9 51.3999 61.9 51.2999C61.9 51.1999 61.8 51.0999 61.9 51.0999C61.9 50.9999 62.1 50.8999 62.1 50.7999C61.9 50.7999 61.8 50.7999 61.6 50.7999C61.5 50.7999 61.4 50.7999 61.4 50.8999C61.4 50.9999 61.4 50.9999 61.5 51.0999C61.6 51.0999 61.6 51.2999 61.5 51.2999C61.3 51.1999 61.1 51.5999 60.7 51.4999C60.6 51.4999 60.5 51.3999 60.5 51.2999C60.5 51.1999 60.6 51.0999 60.7 51.0999C60.9 51.0999 60.9 51.0999 61.1 50.8999C61.1 50.7999 61.3 50.7999 61.2 50.6999C61.1 50.5999 61 50.6999 61 50.6999C60.8 50.9999 60.5 50.9999 60.3 50.6999C60.2 50.5999 60.1 50.5999 60 50.5999C59.8 50.4999 59.6 50.7999 59.3 50.9999C59.6 50.9999 60 51.3999 60.2 51.3999C59.9 51.6999 59.5 51.2999 59.2 51.1999C58.8 51.0999 58.4 50.9999 58 51.2999C57.8 51.3999 57.8 51.3999 57.6 51.2999C56.8 50.9999 56 50.7999 55.3 51.4999C55.2 51.5999 55.1 51.5999 55 51.5999C54.8 51.5999 54.8 51.5999 54.7 51.7999C54.7 51.8999 54.9 51.7999 54.9 51.9999C54.2 52.0999 54.2 52.0999 54.1 52.1999C54.3 52.4999 55.1 52.6999 55.3 52.4999C55.5 52.2999 55.8 52.3999 56.1 52.3999C56.2 52.3999 56.3 52.4999 56.3 52.7999C56.3 53.0999 56.5 53.2999 56.4 53.6999C56.3 53.8999 56.3 54.0999 56.2 54.2999C56.1 54.4999 56 54.6999 55.9 54.7999C55.7 54.9999 55.7 55.7999 55.9 55.7999C56.2 55.9999 56.2 56.1999 56.1 56.3999C56.1 56.7999 56.3 56.9999 56.4 57.2999C56.4 57.4999 56.6 57.5999 56.6 57.4999C56.7 57.3999 56.6 57.2999 56.6 57.0999C56.4 56.8999 56.4 56.5999 56.4 56.2999C56.4 56.1999 56.3 56.1999 56.5 56.0999C56.6 56.0999 56.6 56.1999 56.6 56.1999C56.6 56.4999 56.7 56.7999 56.8 56.9999C57 57.1999 57.2 57.3999 57 57.7999C57 57.7999 57 57.8999 57.1 57.9999C57.3 58.3999 57.5 58.4999 58.1 58.3999C58.2 58.3999 58.3 58.3999 58.3 58.4999C58.3 58.6999 58.4 58.6999 58.5 58.6999C58.7 58.6999 59 58.8999 59.2 59.1999C59.4 59.4999 59.5 59.5999 59.9 59.4999C60.1 59.4999 60.1 59.5999 60.1 59.7999C60.3 60.0999 60.3 60.1999 60.1 60.3999C59.8 60.5999 59.8 61.3999 59.9 61.6999C60.1 61.9999 60.3 62.1999 60.4 62.4999C60.5 62.6999 60.5 62.7999 60.6 62.7999C61 62.9999 61.3 63.1999 61.3 63.7999C61.3 64.0999 61.3 64.3999 61.3 64.6999C61.2 64.8999 61.5 64.9999 61.5 65.1999C61.4 65.5999 61.3 65.8999 61.7 66.1999C61.8 66.2999 61.7 66.3999 61.7 66.4999C61.6 67.0999 61.9 67.6999 62.2 68.0999C62.4 68.2999 62.5 68.4999 62.9 68.3999C63 68.3999 63.1 68.4999 63.1 68.2999C63.2 68.1999 63.1 68.0999 63 67.9999C62.8 67.8999 62.8 67.6999 62.8 67.3999C62.9 67.1999 62.9 67.0999 62.6 67.0999C62.5 67.0999 62.4 66.9999 62.5 66.7999C62.6 66.6999 62.7 66.5999 62.6 66.4999C62.5 66.4999 62.4 66.4999 62.5 66.3999C62.5 66.2999 62.6 66.2999 62.7 66.2999C62.8 66.2999 62.9 66.1999 63 66.1999C63.4 66.0999 63.5 65.4999 63.8 65.1999C64 64.9999 64 64.6999 64 64.3999C63.9 64.0999 64.1 63.8999 64.3 63.8999C64.8 63.8999 65 63.6999 65 63.1999C65 62.7999 65.1 62.3999 65.3 61.9999C65 61.7999 65.1 61.5999 64.6 61.3999Z" fill="#FF9900"/>
<path d="M86 63.9001C85.7 63.5001 85.6 63.1001 85.6 62.7001C85.6 62.5001 85.5 62.2001 85.3 62.3001C85.1 62.3001 85.2 62.6001 85.1 62.8001C85.1 63.1001 84.9 63.2001 84.7 63.1001C84.6 63.1001 84.6 62.9001 84.6 62.8001C84.6 62.7001 84.7 62.7001 84.8 62.7001C84.9 62.7001 85 62.6001 85 62.4001C84.8 62.0001 84.2 62.1001 84 62.4001C83.9 62.5001 83.8 62.9001 83.6 62.5001H83.4C83.2 62.5001 83 62.7001 82.9 62.9001C82.7 63.1001 82.7 63.4001 82.4 63.4001C82 63.4001 81.9 63.6001 81.7 64.1001C81.7 64.5001 81.8 65.0001 81.5 65.3001C81.5 65.3001 81.4 65.5001 81.5 65.5001C81.5 65.5001 81.6 65.5001 81.7 65.5001C82.1 65.3001 82.7 65.1001 83.2 65.1001C83.4 65.1001 83.7 65.1001 83.7 65.5001C83.8 65.9001 83.9 66.1001 84.4 66.0001C84.4 66.0001 84.5 66.0001 84.6 66.0001C84.8 65.9001 84.9 66.1001 85.1 65.9001C85.3 65.6001 85.6 65.3001 85.9 65.0001C86 64.8001 86.2 64.3001 86 63.9001Z" fill="#FF9900"/>
<path d="M81.0001 61.3999C80.9001 61.3999 80.8001 61.3999 80.8001 61.2999C80.8001 61.0999 80.9001 61.1999 81.0001 61.1999C81.2001 61.1999 81.1001 60.9999 81.2001 60.9999C81.4001 61.2999 81.9001 61.2999 82.1001 60.9999C82.1001 60.9999 82.1001 60.8999 82.2001 60.8999H82.3001C82.3001 61.0999 82.3001 61.1999 82.3001 61.3999C82.3001 61.4999 82.3001 61.5999 82.4001 61.5999C82.5001 61.5999 82.5001 61.4999 82.5001 61.3999C82.5001 61.2999 82.4001 61.1999 82.6001 61.1999C82.6001 61.1999 82.6001 61.1999 82.7001 61.2999C82.7001 61.3999 82.7001 61.4999 82.8001 61.4999C82.9001 61.4999 82.9001 61.3999 82.9001 61.2999C82.9001 61.0999 82.9001 60.8999 82.9001 60.6999C82.8001 60.7999 82.7001 60.7999 82.7001 60.7999C82.7001 60.7999 82.5001 60.9999 82.4001 60.8999C82.4001 60.8999 82.3001 60.7999 82.4001 60.7999C82.6001 60.3999 82.5001 60.0999 82.4001 59.5999C82.3001 59.4999 82.2001 59.4999 82.2001 59.5999C82.1001 59.9999 81.8001 59.9999 81.5001 60.1999C81.4001 60.2999 81.3001 60.2999 81.3001 60.4999C81.3001 60.5999 81.4001 60.7999 81.2001 60.7999C81.0001 60.7999 80.8001 60.8999 80.7001 60.6999C80.5001 60.2999 80.3001 60.0999 80.0001 59.8999C79.9001 59.7999 79.8001 59.7999 79.8001 59.8999C79.7001 59.9999 79.8001 60.0999 79.8001 60.0999C80.0001 60.4999 80.5001 60.8999 80.7001 61.2999C80.7001 61.3999 81.0001 61.3999 80.8001 61.5999C80.8001 61.5999 80.8001 61.6999 80.9001 61.6999C81.2001 61.6999 81.7001 61.6999 82.1001 61.6999C81.5001 61.5999 81.5001 61.5999 81.0001 61.3999Z" fill="#FF9900"/>
<path d="M84.3 60.7C84.3 60.6 84.2 60.6 84.1 60.7C84 60.8 83.9 60.9 83.9 61C83.9 61.1 84 61.2 84.1 61.3C84.3 61.4 84.4 61.3 84.6 61.4C84.7 61.5 84.9 61.5 84.6 61.6C84.5 61.6 84.6 61.7 84.6 61.8C84.6 61.9 84.7 61.9 84.7 61.9C84.9 61.9 85.1 62 85.4 61.7C85.4 61.6 85.5 61.6 85.6 61.6C85.7 61.6 85.7 61.7 85.7 61.8C85.7 62 85.7 62.1 85.9 62C85.9 62 86 62.1 86 62C86 61.9 86 61.9 85.9 61.8C85.8 61.8 85.8 61.6 85.8 61.5C85.8 61.4 85.8 61.3 85.7 61.2C85.5 61 85.2 60.8 84.8 60.8C84.6 60.9 84.4 61.2 84.3 60.7Z" fill="#FF9900"/>
<path d="M74 62.4C73.9 62.4 73.8 62.3 73.8 62.5C73.8 62.6 73.6999 62.6 73.6999 62.7C73.5999 62.9 73.5 63.1 73.3 63C73.1 63 73.0999 63.3 73.1999 63.4C73.3999 63.6 73.2 63.7 73.1 63.9C72.9 64.2 72.9 64.5 73.1 64.7C73.2 64.8 73.3 64.8 73.3 64.7C73.6 64.1 74 63.5 74 62.8C74 62.5 74.2 62.4 74 62.4Z" fill="#FF9900"/>
<path d="M84.5 66.4C84.3 66.3 84.2 66.6 84 66.8C84.2 66.9 84.4 66.9 84.7 66.7C84.8 66.6 84.8 66.6 84.8 66.5C84.6 66.4 84.5 66.4 84.5 66.4Z" fill="#FF9900"/>
<path d="M82.8 62.1C82.8 62.2 82.9 62.2 83 62.1C83.1 62 83.2 62.0001 83.3 61.9001C83.3 61.8001 83.2 61.8 83.2 61.8C83.1 61.8 83 62.0001 83 61.9001C82.9 62.0001 82.7 62 82.8 62.1Z" fill="#FF9900"/>
<path d="M62.4 54.2C62.3 54.2 62.2 54.2 62.2 54.3C62.2 54.3 62.1999 54.4 62.2999 54.4C62.3999 54.5 62.5 54.4 62.5 54.4C62.6 54.3 62.7 54.2 62.7 54.1C62.7 53.9 62.6 54.2 62.4 54.2Z" fill="#FF9900"/>
<path fill-rule="evenodd" clip-rule="evenodd" d="M79.5 87.4C77.7 87.4 75.8 87 73.8 86.1C73.8 85.8 73.8 85.4 73.8 85C73.8 84.7 73.8 84.3 73.8 84.1C75.1 84.7 76.5 84.9 77.9 84.9C80.3 84.9 82.7 84.1 85.2 83.2C87.9 82.3 90.8 81.3 93.9 81.3C94.6 81.3 95.4 81.4 96.1 81.5C93.5 82 91.1 83.2 88.8 84.3C86 85.9 83 87.4 79.5 87.4Z" fill="#FF9900"/>
<path d="M55.5999 125.4V105.7L56.2999 105.3C60.5999 102.7 66 99.4999 66 91.0999V79.7999C66 78.8999 65.2999 78.0999 64.2999 78.0999H39V91.0999C39 99.3999 44.3 102.6 48.7 105.2L49.5 105.7V125.4C49.5 126.3 49.1999 127.1 48.5999 127.7H56.4C55.9 127.2 55.5999 126.4 55.5999 125.4ZM46.4 126.7C46.9 126.5 47.2 126 47.2 125.5V107C42.7 104.3 36.7 100.5 36.7 91.1999V75.8999H64.2C66.4 75.8999 68.0999 77.5999 68.0999 79.7999V91.0999C68.0999 100.5 62.2999 104.3 57.7999 107V125.5C57.7999 126 58.0999 126.5 58.5999 126.7L61.0999 127.8L92.1999 130H39L46.4 126.7Z" fill="#FF9900"/>
<path fill-rule="evenodd" clip-rule="evenodd" d="M43.5 90.3C41.7 90.3 39.8 89.9 37.8 89C37.8 88.7 37.8 88.3 37.8 87.9C37.8 87.6 37.8 87.2 37.8 87C39.1 87.6 40.5001 87.8 41.9001 87.8C44.3001 87.8 46.7001 87 49.2001 86.1C51.9001 85.2 54.8001 84.2 57.9001 84.2C58.6001 84.2 59.4 84.3 60.1 84.4C57.5 84.9 55.1 86.1 52.8 87.2C50 88.8 47 90.3 43.5 90.3Z" fill="#FF9900"/>
</svg>
