<svg width="86" height="83" viewBox="0 0 86 83" fill="none" xmlns="http://www.w3.org/2000/svg">
<ellipse cx="43.1773" cy="41.5" rx="42.8105" ry="41.5" fill="#292E36"/>
<path d="M26.277 26.8068C22.602 30.792 20.5464 35.9245 20.4841 41.2583C20.3388 53.4555 30.6165 63.4588 43.1781 63.4991C55.7397 63.5192 65.8721 53.6568 65.8721 41.4998C65.8721 29.524 55.9889 19.7622 43.6972 19.5005C43.6349 19.5005 43.5518 19.5005 43.4895 19.5408C43.4273 19.5609 43.365 19.6012 43.3234 19.6414C43.2819 19.6817 43.2404 19.7421 43.1989 19.8025C43.1781 19.8628 43.1573 19.9232 43.1573 20.0037V29.5844" stroke="white" stroke-width="3.5" stroke-linecap="round" stroke-linejoin="round"/>
<path d="M40.5204 44.0762L31.177 31.1342C31.0317 30.9531 30.9902 30.7317 31.0109 30.5103C31.0317 30.2889 31.1147 30.0876 31.2809 29.9266C31.447 29.7656 31.6546 29.6851 31.883 29.6649C32.0906 29.6448 32.319 29.7052 32.5059 29.826L45.8565 38.8833C46.6662 39.4469 47.2268 40.3123 47.3929 41.2785C47.5591 42.2446 47.3307 43.2308 46.7493 44.0359C46.1679 44.841 45.2959 45.3845 44.2993 45.5656C43.3026 45.7467 42.2852 45.5253 41.4547 44.9819C41.1018 44.7404 40.7695 44.4385 40.5204 44.0762Z" fill="white"/>
</svg>
