<svg width="142" height="130" viewBox="0 0 142 130" fill="none" xmlns="http://www.w3.org/2000/svg">
<mask id="mask0_84_379" style="mask-type:luminance" maskUnits="userSpaceOnUse" x="24" y="10" width="93" height="110">
<path d="M116.9 10H24.7V120H116.9V10Z" fill="white"/>
</mask>
<g mask="url(#mask0_84_379)">
<path d="M95.4999 52.5C93.0999 52.5 90.7999 52.3 88.3999 51.6C86.6999 51.2 84.8999 50.7 83.1999 50.3C78.8999 49.1 74.3999 47.9 69.9999 47.9H69.6999C66.5999 47.9 63.2999 48.7 59.6999 49.6C55.8999 50.6 51.7999 51.5 47.7999 51.5C45.5999 51.5 43.5999 51.2 41.5999 50.5C28.4999 46.3 24.2999 37.4 24.6999 30.5C25.2999 22.4 31.5999 15.9 40.2999 14.1C41.1999 13.9 41.9999 13.9 42.8999 13.9C44.6999 13.9 46.3999 14.2 47.9999 14.9C48.6999 15.3 49.3999 15.7 50.1999 16.2C52.3999 12.2 56.5999 10 61.6999 10C69.8999 10 78.2999 15.2 81.1999 22.2L80.2999 22.6C77.2999 18.6 69.2999 14.3 62.5999 14.3C58.7999 14.3 53.8999 15.7 52.5999 22.4L52.2999 23.8L51.6999 22.4C50.9999 20.5 48.4999 19.3 44.9999 19.3C43.8999 19.3 42.4999 19.5 41.1999 19.7C34.1999 21.1 28.9999 26.6 28.4999 33.1C28.0999 40 33.1999 45.7 42.1999 48.7C43.3999 49.1 44.7999 49.3 46.3999 49.3C50.1999 49.3 54.5999 48.2 58.6999 47.1C62.6999 46.1 66.3999 45 69.5999 45H69.8999C70.5999 44.9 71.3999 44.9 72.2999 44.9C76.5999 44.9 80.9999 45.9 84.9999 47C86.3999 47.3 87.6999 47.7 89.0999 48C91.1999 48.4 93.1999 48.7 95.2999 48.7C99.5999 48.7 103.6 47.7 106.8 45.6C111.1 42.9 115.1 39.3 113.6 31.6C112.4 27.9 109.6 24.4 105.8 21.9C101.5 19 95.6999 17.6 89.3999 17.6C86.2999 17.6 83.0999 17.9 79.9999 18.6L79.4999 17.8C83.0999 16.1 87.1999 15.4 91.3999 15.4C98.2999 15.4 104.1 17.5 107 19.3C111.5 22.2 114.8 26.2 116.2 30.7C118.3 37.6 115.6 44.3 109.1 48.7C105.2 51.1 100.5 52.5 95.4999 52.5Z" fill="#FF9900"/>
<path d="M52.1999 93.2001L51.2999 93.1001C51.2999 93.0001 51.2999 92.9001 51.2999 92.9001C52.6999 80.2001 50.2999 63.8001 47.2999 53.8001L48.1999 53.6001C52.8999 62.7001 55.0999 74.6001 54.5999 88.0001V88.1001V88.2001C54.2999 88.9001 53.9999 89.6001 53.5999 90.4001C53.1999 91.1001 52.9999 91.8001 52.5999 92.6001C52.4999 92.8001 52.4999 92.8001 52.4999 93.0001V93.4001L52.1999 93.2001Z" fill="#FF9900"/>
<path d="M93.3999 90.5C93.0999 90.5 92.8999 90.4001 92.6999 90.3001C92.4999 90.2001 92.2999 90.2 92.1999 90.2H91.9999L91.8999 90C90.9999 89.1 90.2999 87.7001 89.8999 86C88.8999 76.8 91.4999 67.4 93.9999 60.3L94.9999 60.5L94.7999 62.1C93.7999 69.8 92.3999 80.3 93.8999 90L93.9999 90.6H93.4999L93.3999 90.5Z" fill="#FF9900"/>
<path d="M89.8999 115.1C98.5999 115.1 105.9 117.3 108 118L108.6 120C101.9 118 94.6999 117.1 87.1999 117.1C81.9999 117.1 77.3999 117.7 73.7999 118.2C78.4999 116.2 83.8999 115.1 89.8999 115.1Z" fill="#FF9900"/>
<path d="M72 118.1C68.2999 117.5 63.6999 117 58.5999 117C51.0999 117 43.9 118 37.2 119.9L37.7999 117.9C39.9999 117.2 47.2 115 55.9 115C61.9 115.1 67.2 116.2 72 118.1Z" fill="#FF9900"/>
<path d="M94.3999 107.7C96.9999 107.7 99.7999 107.9 102.7 108.4L104.1 110.6C101.5 110 97.4999 109.4 92.5999 109.4C86.6999 109.4 81.0999 110.3 75.7999 112.1C80.2999 109.8 86.4999 107.7 94.3999 107.7Z" fill="#FF9900"/>
<path d="M95.5 100.4L97.5 102.4C96.9 102.4 96.5 102.4 95.9 102.4C90.4 102.4 81.9 103.1 74.5 106.6C78.7 103.3 85.4 100.5 95.5 100.4Z" fill="#FF9900"/>
<path d="M51.4 106.6V107.8C59.3 107.8 65.5 109.9 70 112.2C64.7 110.4 59.1 109.5 53.2 109.5C48.3 109.5 44.4 110.2 41.7 110.8L43.0999 108.6C45.8999 108 48.6 107.9 51.4 107.9V106.6Z" fill="#FF9900"/>
<path d="M50.2999 100.4C60.3999 100.5 67.0999 103.3 71.4999 106.6C64.1999 103.1 55.6999 102.4 50.0999 102.4C49.4999 102.4 49.0999 102.4 48.4999 102.4L50.2999 100.4Z" fill="#FF9900"/>
</g>
</svg>
